<?xml version="1.0" standalone="no"?>
<!DOCTYPE svg PUBLIC "-//W3C//DTD SVG 20010904//EN"
 "http://www.w3.org/TR/2001/REC-SVG-20010904/DTD/svg10.dtd">
<svg version="1.0" xmlns="http://www.w3.org/2000/svg"
 width="941.000000pt" height="941.000000pt" viewBox="0 0 941.000000 941.000000"
 preserveAspectRatio="xMidYMid meet">
<metadata>
Created by potrace 1.14, written by Peter Selinger 2001-2017
</metadata>
<g transform="translate(0.000000,941.000000) scale(0.100000,-0.100000)"
fill="#000000" stroke="none">
<path d="M0 4705 l0 -4705 2081 0 c1978 0 2081 1 2074 17 -4 10 -23 71 -43
136 -31 100 -34 123 -26 155 5 20 6 51 2 67 -4 17 -37 152 -74 300 -36 149
-80 308 -96 355 -17 47 -34 110 -38 140 -9 64 -150 568 -220 785 -27 83 -59
184 -70 225 -12 41 -28 93 -36 115 -8 23 -14 51 -14 63 0 12 -4 22 -9 22 -12
0 -24 98 -14 113 5 7 10 -11 13 -43 4 -48 8 -55 28 -58 20 -3 22 0 22 46 0 43
-3 51 -22 56 -22 7 -22 8 9 23 28 14 41 15 103 4 45 -8 68 -17 63 -24 -4 -6
-1 -8 8 -5 8 3 23 1 34 -4 13 -5 -7 -6 -53 -3 l-73 5 3 -52 3 -53 50 -8 c54
-9 125 -36 125 -48 0 -4 -5 -11 -10 -14 -6 -4 -7 -12 -3 -18 4 -7 8 -19 10
-27 1 -8 6 -16 12 -18 5 -2 7 -18 4 -36 -3 -23 0 -38 12 -50 10 -9 15 -25 12
-36 -3 -11 0 -23 6 -28 7 -4 13 -20 14 -37 3 -50 9 -89 17 -107 4 -9 4 -23 0
-30 -6 -10 -5 -11 7 -1 13 10 16 10 16 -2 0 -8 -4 -15 -8 -15 -4 0 -7 -9 -6
-20 1 -12 7 -18 14 -16 18 7 16 -14 -4 -36 -14 -16 -14 -18 0 -18 10 0 13 -6
10 -20 -4 -15 0 -20 13 -20 16 0 17 -2 4 -10 -11 -7 -11 -10 -2 -10 10 0 10
-5 2 -20 -7 -14 -7 -20 0 -20 5 0 10 -7 10 -16 0 -8 5 -12 10 -9 5 3 10 2 10
-4 0 -5 -5 -13 -11 -17 -14 -9 -3 -51 21 -77 22 -22 26 -37 11 -37 -6 0 -6
-12 -1 -30 5 -16 6 -30 3 -30 -3 0 0 -7 7 -15 7 -8 16 -13 20 -10 5 3 11 1 15
-5 3 -5 0 -10 -7 -10 -9 0 -13 -18 -14 -58 -1 -31 1 -47 3 -34 5 26 9 27 29 7
13 -13 13 -16 1 -20 -16 -7 -19 -35 -4 -35 6 0 8 -3 4 -6 -3 -3 -1 -17 4 -31
6 -17 6 -30 -1 -38 -7 -8 -7 -15 -1 -19 5 -3 8 -19 7 -36 -1 -16 1 -30 4 -30
3 0 5 -28 5 -63 -1 -34 0 -56 2 -49 9 24 20 11 17 -20 -1 -18 3 -49 9 -68 6
-19 10 -48 9 -63 -2 -16 1 -26 5 -24 5 3 14 -1 21 -9 7 -8 8 -14 2 -14 -13 0
-13 -47 0 -55 6 -4 10 -12 9 -18 -4 -23 14 -152 21 -157 5 -3 10 -30 13 -60 3
-30 13 -86 22 -125 23 -102 43 -201 56 -278 8 -48 15 -65 21 -55 6 9 7 5 3
-10 -4 -13 -4 -39 0 -58 l6 -34 67 0 c58 1 65 2 49 14 -16 13 -16 14 8 18 19
4 25 1 25 -13 0 -18 12 -19 229 -19 l229 0 7 43 c6 38 26 154 54 307 l10 55
-5 -70 c-3 -38 -14 -121 -25 -183 -27 -159 -28 -152 26 -152 l45 0 0 38 c0 21
14 112 30 202 29 155 47 267 100 625 23 156 53 269 101 393 39 97 36 111 -7
32 -39 -74 -36 -47 7 52 16 36 29 69 29 73 0 11 -63 -84 -100 -150 -69 -125
-62 -100 -117 -405 -14 -80 -33 -197 -43 -260 -10 -63 -18 -105 -19 -93 -1 29
16 160 34 248 7 39 21 120 30 180 9 61 21 132 26 158 32 168 -9 316 -148 526
-23 36 -40 68 -37 73 7 11 24 0 24 -17 0 -7 7 -15 15 -19 8 -3 15 -12 15 -20
0 -7 13 -28 29 -45 17 -18 31 -35 32 -39 7 -34 42 -82 60 -82 11 0 17 -5 14
-10 -4 -6 -10 -8 -15 -5 -9 6 12 -65 27 -88 4 -6 8 -24 10 -40 2 -16 7 -36 13
-45 9 -16 9 -16 10 1 0 9 5 17 10 17 7 0 9 17 6 47 -4 28 -1 51 6 60 6 7 12
33 13 56 1 23 6 58 10 77 4 19 8 43 9 52 0 9 4 14 8 12 4 -3 8 5 8 18 0 13 6
30 12 37 11 11 11 14 1 18 -7 3 -13 9 -13 14 0 6 4 8 8 5 5 -3 10 14 11 37 4
75 7 88 20 97 9 5 10 10 2 14 -17 11 -14 39 4 32 12 -4 14 3 9 40 -3 24 -1 44
3 43 4 -1 15 -1 23 0 12 1 12 4 -2 12 -22 12 -23 35 -3 43 8 3 12 12 9 21 -4
8 -1 22 5 29 9 11 9 15 -1 19 -9 4 -7 11 8 24 11 10 19 23 17 30 -2 6 3 17 11
25 8 9 13 27 11 44 -7 48 6 114 21 114 8 0 14 5 14 11 0 5 -4 8 -9 5 -5 -3
-15 2 -22 11 -12 14 -12 16 2 11 8 -3 42 -1 74 6 l58 11 0 50 c-1 28 4 53 10
57 7 4 -33 6 -88 4 -55 -2 -79 -1 -52 1 26 2 47 9 47 15 0 5 7 7 16 4 9 -3 34
-1 57 5 22 6 60 8 85 4 40 -6 42 -8 25 -20 -10 -8 -13 -15 -7 -15 8 0 10 -17
7 -54 -4 -47 -2 -54 16 -59 18 -4 19 -8 8 -43 -6 -22 -15 -42 -21 -45 -5 -4
-6 -16 -3 -28 3 -12 1 -24 -5 -27 -5 -3 -7 -12 -4 -20 3 -8 1 -14 -4 -14 -9 0
-17 -29 -24 -90 -2 -19 -7 -44 -11 -55 -6 -17 -3 -16 13 4 11 14 25 43 32 65
17 59 49 126 60 126 19 0 15 -39 -12 -115 -55 -152 -60 -166 -64 -162 -2 2 12
48 31 103 46 132 44 153 -4 34 -21 -52 -47 -113 -58 -135 -12 -23 -20 -57 -19
-80 1 -35 -17 -89 -64 -190 -30 -63 -114 -279 -131 -335 -11 -36 -24 -94 -29
-130 -5 -36 -30 -159 -55 -275 -26 -116 -60 -282 -76 -370 -16 -88 -35 -185
-43 -215 -12 -46 -66 -344 -66 -364 0 -3 983 -6 2185 -6 l2185 0 0 4705 0
4705 -4705 0 -4705 0 0 -4705z m3766 4536 c11 9 14 8 14 -4 0 -23 -32 -31 -47
-11 -7 9 -10 21 -6 27 3 5 10 2 15 -7 8 -14 13 -15 24 -5z m1124 -98 c0 -20
-4 -24 -20 -20 -10 3 -21 0 -23 -6 -5 -16 -27 1 -27 21 0 19 37 41 58 34 6 -2
12 -15 12 -29z m258 -51 c2 -7 -3 -12 -12 -12 -9 0 -16 7 -16 16 0 17 22 14
28 -4z m-595 -142 c31 -51 17 -90 -33 -90 -33 0 -50 17 -50 51 0 19 -6 28 -21
32 -29 8 -18 32 14 32 14 1 29 4 32 7 12 12 42 -4 58 -32z m-1485 19 c-2 -6
-8 -10 -13 -10 -5 0 -11 4 -13 10 -2 6 4 11 13 11 9 0 15 -5 13 -11z m1082
-76 c0 -7 -7 -13 -15 -13 -10 0 -14 7 -11 23 3 12 5 24 5 27 2 9 21 -25 21
-37z m1018 -26 c4 -20 -25 -34 -40 -19 -15 15 -1 44 19 40 10 -2 19 -11 21
-21z m-408 -127 c0 -27 -27 -37 -47 -17 -20 19 -9 37 23 37 17 0 24 -5 24 -20z
m350 -4 c0 -3 -4 -8 -10 -11 -5 -3 -10 -1 -10 4 0 6 5 11 10 11 6 0 10 -2 10
-4z m-442 -60 c5 -23 -47 -42 -65 -23 -8 7 -11 21 -7 30 8 22 68 17 72 -7z
m205 -21 c1 -5 -6 -11 -15 -13 -11 -2 -18 3 -18 13 0 17 30 18 33 0z m37 -225
c0 -5 -4 -10 -10 -10 -5 0 -10 5 -10 10 0 6 5 10 10 10 6 0 10 -4 10 -10z
m-390 -191 c0 -24 -25 -42 -49 -34 -29 9 -39 64 -15 82 15 11 21 10 41 -9 13
-12 23 -29 23 -39z m865 1 c0 -22 -29 -18 -33 3 -3 14 1 18 15 15 10 -2 18
-10 18 -18z m-1057 -2 c7 -7 12 -21 12 -33 0 -48 -63 -64 -80 -19 -19 48 33
87 68 52z m-103 -38 c3 -5 -1 -10 -9 -10 -9 0 -16 5 -16 10 0 6 4 10 9 10 6 0
13 -4 16 -10z m-2001 -52 c14 -24 -3 -39 -45 -41 -35 -2 -48 16 -35 49 8 21
66 14 80 -8z m2954 -70 c15 -15 16 -55 1 -63 -16 -11 -56 3 -63 21 -7 18 19
54 39 54 6 0 16 -5 23 -12z m-1892 -25 c-7 -7 -26 7 -26 19 0 6 6 6 15 -2 9
-7 13 -15 11 -17z m1150 -9 c-3 -9 -6 -22 -6 -31 0 -24 -44 -12 -48 14 -3 21
2 24 52 32 4 0 5 -6 2 -15z m602 -23 c18 -11 11 -45 -9 -49 -22 -4 -50 25 -43
43 7 17 32 19 52 6z m-738 -31 c0 -5 -5 -10 -11 -10 -5 0 -7 5 -4 10 3 6 8 10
11 10 2 0 4 -4 4 -10z m200 1 c0 -15 -15 -21 -38 -14 -32 8 -27 23 8 23 17 0
30 -4 30 -9z m780 -61 c0 -5 -5 -12 -11 -16 -14 -8 -33 11 -25 25 7 11 36 4
36 -9z m-780 -5 c0 -8 -7 -15 -15 -15 -16 0 -20 12 -8 23 11 12 23 8 23 -8z
m-936 -37 c10 17 26 15 26 -3 0 -9 -7 -18 -16 -22 -20 -7 -49 21 -38 38 5 9 9
8 14 -6 5 -13 9 -15 14 -7z m1139 -5 c-13 -8 -23 -22 -23 -29 0 -19 7 -18 32
6 28 26 64 26 79 -1 9 -17 7 -25 -13 -47 -12 -15 -30 -32 -38 -39 -21 -18 -67
-16 -82 3 -7 9 -24 27 -37 40 -20 20 -21 24 -6 24 9 0 30 14 45 30 15 17 36
30 47 29 16 0 15 -2 -4 -16z m-136 -30 c6 -17 -38 -28 -48 -12 -5 8 -9 18 -9
22 0 13 53 4 57 -10z m-363 -55 c8 -13 5 -24 -12 -47 -12 -17 -22 -38 -22 -49
0 -21 -18 -42 -37 -42 -16 0 -18 77 -2 82 9 3 8 10 -1 28 -11 20 -10 25 6 37
24 17 54 13 68 -9z m366 12 c0 -13 -28 -25 -38 -16 -3 4 0 11 8 16 20 13 30
12 30 0z m63 -42 c-6 -11 -31 -10 -37 1 -3 5 5 8 18 7 13 0 22 -4 19 -8z m332
-13 c0 -22 -31 -33 -48 -16 -7 7 -6 15 3 26 17 21 45 15 45 -10z m-324 -68
c-13 -13 -26 -3 -16 12 3 6 11 8 17 5 6 -4 6 -10 -1 -17z m169 -2 c-1 -5 -7
-9 -15 -7 -7 1 -15 -7 -17 -19 -4 -27 -28 -38 -28 -13 0 23 30 56 47 52 8 -2
14 -7 13 -13z m-213 -25 c-7 -18 -14 -25 -18 -18 -8 13 7 48 20 48 5 0 4 -13
-2 -30z m-1877 4 c0 -9 -5 -14 -12 -12 -18 6 -21 28 -4 28 9 0 16 -7 16 -16z
m990 1 c0 -8 -9 -15 -20 -15 -11 0 -20 7 -20 15 0 8 9 15 20 15 11 0 20 -7 20
-15z m-312 -42 c2 -14 -4 -22 -19 -26 -28 -7 -39 -1 -39 22 0 23 6 28 32 26
15 -1 24 -9 26 -22z m102 17 c0 -5 -2 -10 -4 -10 -3 0 -8 5 -11 10 -3 6 -1 10
4 10 6 0 11 -4 11 -10z m560 1 c0 -5 -9 -7 -20 -4 -11 3 -20 7 -20 9 0 2 9 4
20 4 11 0 20 -4 20 -9z m230 -11 c0 -5 -5 -10 -11 -10 -8 0 -7 -5 1 -15 9 -11
10 -19 2 -27 -22 -22 -35 14 -23 60 2 7 31 0 31 -8z m-183 -22 c-3 -8 -6 -5
-6 6 -1 11 2 17 5 13 3 -3 4 -12 1 -19z m695 1 c-12 -5 -22 -14 -22 -20 0 -7
-3 -10 -6 -7 -12 13 16 47 33 41 14 -5 13 -8 -5 -14z m318 11 c0 -5 -7 -10
-15 -10 -8 0 -15 5 -15 10 0 6 7 10 15 10 8 0 15 -4 15 -10z m1177 -36 c24
-33 -22 -74 -83 -74 -44 0 -54 75 -12 94 23 10 83 -3 95 -20z m-2737 -49 c0
-8 -4 -15 -10 -15 -5 0 -10 7 -10 15 0 8 5 15 10 15 6 0 10 -7 10 -15z m-220
-37 c0 -19 -42 -58 -62 -58 -10 0 -18 2 -18 4 0 2 -3 11 -6 19 -4 10 4 21 23
31 34 18 63 20 63 4z m1890 -13 c0 -8 -4 -15 -9 -15 -13 0 -22 16 -14 24 11
11 23 6 23 -9z m440 -14 c0 -26 -23 -44 -38 -29 -17 17 -15 35 5 47 22 12 33
5 33 -18z m-1610 10 c0 -4 -11 -6 -25 -3 -14 2 -25 6 -25 8 0 2 11 4 25 4 14
0 25 -4 25 -9z m30 -52 c0 -5 -16 -9 -36 -9 l-36 0 23 19 c23 19 49 13 49 -10z
m362 14 c9 -10 28 -26 42 -36 30 -21 33 -43 9 -69 -16 -18 -49 -26 -39 -9 4 5
-2 7 -12 4 -18 -4 -41 15 -46 39 -2 7 -6 21 -10 30 -9 19 9 58 27 58 7 0 20
-8 29 -17z m-78 -25 c8 -14 7 -21 -6 -34 -30 -30 -75 9 -48 42 16 18 39 15 54
-8z m-1129 2 c3 -5 -8 -18 -24 -29 -25 -18 -30 -19 -41 -6 -7 8 -10 21 -7 28
6 15 64 21 72 7z m1503 -57 c30 -33 31 -107 0 -140 -25 -27 -19 -40 12 -21 18
11 23 10 36 -7 8 -10 13 -24 11 -29 -4 -12 -57 -27 -102 -29 -26 -2 -30 2 -33
25 -2 18 -11 28 -27 32 -14 4 -29 15 -35 25 -6 12 -17 17 -29 14 -12 -3 -25 5
-40 25 -25 36 -25 39 -7 58 20 19 42 18 51 -3 6 -16 9 -15 31 11 32 37 39 28
25 -29 -6 -25 -9 -50 -6 -56 20 -32 95 26 95 75 0 34 -25 66 -52 66 -11 0 -16
5 -13 10 10 16 58 0 83 -27z m-1098 17 c0 -5 -7 -10 -16 -10 -8 0 -12 5 -9 10
3 6 10 10 16 10 5 0 9 -4 9 -10z m-150 -15 c0 -8 -7 -15 -16 -15 -14 0 -14 -2
1 -16 21 -22 15 -36 -18 -40 -26 -3 -38 11 -16 18 6 2 9 13 7 23 -3 16 -7 13
-22 -17 -21 -43 -18 -87 7 -102 14 -9 22 -6 46 19 41 44 55 75 42 88 -14 14
-14 27 -1 27 5 0 19 -18 29 -39 l20 -39 -30 -39 c-34 -42 -57 -54 -90 -48 -36
7 -51 30 -57 84 -4 46 -2 53 26 81 32 32 72 40 72 15z m1945 5 c8 -13 -14 -42
-26 -34 -5 3 -9 14 -9 25 0 20 24 26 35 9z m-1685 -49 c0 -12 -29 -23 -41 -15
-16 10 -9 20 16 22 14 1 25 -2 25 -7z m106 -3 c5 -8 2 -9 -12 -4 -10 4 -15 4
-11 0 4 -4 1 -14 -6 -22 -10 -13 -8 -14 12 -7 l23 7 -21 -21 c-12 -12 -25 -21
-31 -21 -16 0 -23 49 -10 65 15 18 46 20 56 3z m576 -35 c26 -23 22 -33 -11
-33 -32 0 -50 15 -29 23 10 4 10 6 0 6 -7 1 -15 -6 -18 -14 -4 -8 -10 -15 -14
-15 -5 0 -3 11 3 25 14 29 42 32 69 8z m-1197 -3 c3 -5 -1 -10 -10 -10 -9 0
-13 5 -10 10 3 6 8 10 10 10 2 0 7 -4 10 -10z m2038 -28 c9 -8 17 -19 17 -24
0 -5 -8 -12 -17 -15 -10 -4 -22 -11 -26 -17 -6 -7 -7 -5 -4 4 6 19 -11 44 -36
53 -10 4 -15 11 -12 17 8 13 55 2 78 -18z m270 11 c8 -7 -11 -33 -24 -33 -5 0
-9 9 -9 20 0 19 20 27 33 13z m-2103 -13 c0 -5 -4 -10 -10 -10 -5 0 -10 5 -10
10 0 6 5 10 10 10 6 0 10 -4 10 -10z m440 -5 c0 -8 -4 -15 -9 -15 -13 0 -22
16 -14 24 11 11 23 6 23 -9z m1270 -1 c0 -17 -22 -14 -28 4 -2 7 3 12 12 12 9
0 16 -7 16 -16z m-1529 -31 c14 -38 8 -58 -21 -58 -19 0 -26 7 -31 32 -11 53
33 75 52 26z m823 8 c3 -4 -3 -16 -14 -26 -17 -16 -24 -16 -48 -6 l-27 13 35
13 c45 16 48 17 54 6z m-1134 -10 c0 -14 -18 -23 -30 -16 -6 4 -8 11 -5 16 8
12 35 12 35 0z m1987 -67 c3 -8 1 -20 -4 -25 -12 -12 -48 14 -39 29 10 17 36
15 43 -4z m176 -30 c-7 -18 -33 -18 -33 -1 0 19 10 27 25 20 8 -2 11 -11 8
-19z m-723 -31 c0 -6 -6 -14 -12 -16 -7 -3 -2 -6 11 -6 21 -1 23 -4 16 -38 -5
-31 -4 -36 6 -25 21 19 47 14 65 -14 16 -24 16 -28 1 -53 -14 -24 -14 -28 -1
-36 17 -11 9 -45 -11 -45 -6 0 -22 9 -35 20 -13 11 -29 20 -35 20 -7 0 -18 7
-25 15 -8 9 -21 13 -32 9 -22 -7 -58 21 -58 45 -1 14 -2 14 -14 -1 -7 -10 -27
-21 -44 -24 l-30 -6 1 50 c3 76 53 118 88 75 11 -13 11 -17 2 -20 -7 -3 -13
-13 -13 -24 0 -15 7 -19 35 -19 28 0 35 4 35 19 0 11 4 23 10 26 6 4 5 13 -2
25 -9 15 -9 24 2 44 12 24 14 24 26 8 7 -9 14 -22 14 -29z m-1614 10 c-10 -10
-19 5 -10 18 6 11 8 11 12 0 2 -7 1 -15 -2 -18z m1360 2 c34 -34 28 -65 -15
-87 -19 -9 -39 -22 -44 -27 -19 -19 -47 -13 -47 9 0 11 5 20 10 20 6 0 10 5
10 10 0 6 -11 10 -25 10 -29 0 -45 28 -24 41 8 5 23 9 35 9 11 0 29 9 39 20
23 26 31 25 61 -5z m648 -20 c11 -17 26 -25 45 -25 40 0 56 -22 40 -52 -7 -13
-14 -30 -15 -38 -2 -8 -11 -20 -21 -28 -10 -7 -18 -25 -18 -40 0 -18 -6 -28
-19 -30 -23 -5 -38 16 -26 38 6 11 5 21 -2 28 -8 8 -6 18 6 37 22 33 16 50
-19 53 -38 3 -45 9 -45 42 0 45 48 55 74 15z m-2094 5 c0 -5 -7 -10 -15 -10
-8 0 -15 5 -15 10 0 6 7 10 15 10 8 0 15 -4 15 -10z m3050 -11 c0 -5 -7 -9
-15 -9 -15 0 -20 12 -9 23 8 8 24 -1 24 -14z m-3362 -11 c-3 -7 -11 -13 -18
-13 -7 0 -15 6 -17 13 -3 7 4 12 17 12 13 0 20 -5 18 -12z m1390 -24 c-5 -26
-38 -31 -38 -7 0 24 21 46 33 34 5 -5 7 -17 5 -27z m-1015 -44 c-6 -22 -28
-27 -39 -9 -3 6 0 15 7 20 24 15 37 10 32 -11z m1011 -14 c9 -14 27 -26 43
-28 26 -3 28 -6 25 -40 -3 -29 1 -39 17 -48 24 -13 28 -38 6 -46 -30 -12 -14
-25 44 -39 26 -7 61 -48 55 -67 -4 -13 0 -18 14 -18 11 0 22 -5 24 -12 3 -7
13 -5 32 7 17 12 24 21 17 28 -5 5 -7 16 -4 23 3 10 0 12 -10 8 -47 -18 -77
51 -35 80 34 24 58 20 64 -11 5 -26 9 -28 66 -31 42 -2 67 2 85 13 13 9 32 13
42 10 11 -3 25 0 32 8 8 7 30 21 49 30 31 16 36 16 46 2 6 -8 18 -15 26 -15
18 0 29 -51 16 -74 -11 -20 -5 -20 33 0 40 20 86 11 85 -18 -1 -11 5 -23 11
-25 8 -3 12 7 11 31 -1 19 -4 35 -7 34 -3 0 -19 0 -34 1 -25 1 -28 4 -25 29 2
21 9 28 31 30 22 3 30 -1 34 -17 3 -11 9 -19 13 -16 5 3 29 8 54 11 38 4 47 2
55 -15 19 -35 13 -70 -14 -83 -26 -12 -36 -32 -11 -22 8 3 16 -3 19 -15 4 -17
2 -19 -13 -11 -9 5 -20 6 -24 3 -10 -10 -7 -43 4 -43 6 0 10 -11 10 -25 0 -16
6 -25 15 -25 8 0 15 7 15 16 0 8 -4 12 -10 9 -11 -7 -2 23 13 43 6 7 12 30 14
50 5 48 28 69 81 78 40 6 42 5 42 -19 0 -14 -7 -28 -16 -31 -10 -4 -14 -14
-11 -25 7 -27 -11 -51 -38 -51 -15 0 -25 -6 -25 -15 0 -8 -9 -19 -20 -25 -14
-8 -19 -17 -15 -30 3 -10 1 -21 -5 -25 -5 -3 -10 -11 -10 -17 0 -6 2 -9 5 -6
3 3 26 -14 51 -38 43 -41 83 -51 70 -17 -9 23 2 33 28 23 32 -12 54 3 37 24
-7 9 -11 22 -7 31 8 21 36 7 37 -19 0 -11 3 -15 6 -8 2 6 12 12 20 12 13 0 13
3 3 15 -13 16 -6 50 9 41 5 -3 9 9 10 27 0 30 30 126 31 100 0 -7 11 -13 25
-13 23 0 25 -4 25 -45 0 -49 1 -50 32 -34 18 10 25 8 40 -11 15 -18 21 -20 33
-10 8 6 19 9 25 5 17 -10 11 -25 -10 -25 -11 0 -20 -6 -20 -14 0 -20 -39 -46
-69 -46 -13 0 -32 7 -42 16 -16 14 -18 12 -24 -25 -8 -50 -4 -57 41 -65 25 -5
39 -3 47 7 7 7 31 19 54 27 30 9 43 19 48 37 5 21 11 24 42 21 21 -2 41 -10
47 -21 9 -14 6 -21 -19 -41 -24 -19 -30 -32 -30 -62 0 -28 -5 -41 -20 -49 -11
-5 -30 -20 -42 -32 -21 -21 -21 -22 -2 -39 24 -22 24 -50 -1 -96 -27 -51 -23
-100 9 -108 28 -6 41 -30 17 -30 -19 0 -21 -11 -4 -28 9 -9 16 -8 29 4 10 9
20 11 23 6 3 -5 -1 -15 -9 -22 -7 -6 -11 -18 -8 -26 3 -8 0 -28 -7 -45 -11
-26 -10 -31 6 -44 11 -8 14 -15 8 -15 -6 0 -21 -9 -34 -20 -13 -11 -28 -20
-34 -20 -6 0 -12 -18 -14 -39 -2 -31 2 -41 15 -44 10 -3 28 -8 41 -12 12 -4
22 -2 22 4 0 5 -12 11 -27 13 -38 4 -41 33 -8 64 33 30 66 31 101 1 23 -20 25
-26 15 -45 -8 -15 -21 -22 -44 -23 -30 0 -30 -1 -9 -10 83 -33 -41 -36 -1048
-25 -778 9 -1101 15 -1112 22 -19 12 -76 6 -102 -11 -31 -21 -50 -10 -21 11
19 14 19 16 2 28 -9 7 -33 12 -52 10 -25 -2 -35 2 -35 12 0 35 76 22 104 -18
10 -14 21 -17 47 -13 18 3 36 8 39 11 8 8 6 73 -2 67 -5 -2 -8 3 -8 12 0 8 -4
24 -10 35 -24 48 -28 57 -35 88 -9 42 15 72 57 72 22 0 28 5 28 21 0 18 -4 20
-29 14 -38 -8 -91 18 -91 45 0 11 -14 29 -30 42 -17 12 -28 28 -26 35 3 7 1
13 -4 13 -4 0 -11 14 -15 30 -7 34 7 60 34 60 18 0 45 -36 37 -49 -3 -4 10
-22 28 -39 23 -22 39 -29 55 -25 16 4 21 1 21 -15 0 -12 5 -24 10 -27 6 -3 7
-17 4 -31 -4 -14 -2 -24 5 -24 6 0 11 4 11 8 0 4 19 9 42 9 45 2 88 -25 88
-56 0 -9 6 -23 13 -32 10 -13 16 -8 39 38 l27 54 -25 21 c-15 14 -22 28 -19
38 4 8 8 30 11 48 3 25 0 32 -14 32 -16 1 -16 1 1 11 9 5 17 21 17 34 0 19 6
25 33 29 113 17 107 15 107 45 0 17 7 31 16 35 9 3 12 11 8 18 -6 10 -4 10 8
0 11 -9 18 -10 23 -2 3 5 1 10 -5 10 -5 0 -18 16 -27 36 -16 33 -16 37 -1 48
14 11 14 14 -4 36 -14 17 -28 24 -45 22 -36 -5 -110 49 -97 70 5 8 -10 9 -47
5 -65 -8 -74 -3 -83 43 -22 109 -21 119 20 161 27 28 45 38 58 35 11 -3 26 0
33 6 16 13 43 -6 43 -32 0 -10 7 -23 14 -30 8 -6 23 -31 32 -56 11 -30 23 -44
35 -44 10 0 24 -9 31 -20 15 -24 37 -26 64 -5 25 19 68 19 84 0 7 -8 10 -27 7
-41 l-5 -26 54 6 c50 6 54 5 54 -15 0 -15 4 -19 16 -15 9 3 21 6 28 6 7 0 17
15 24 33 8 22 24 38 52 51 48 23 47 28 -4 16 -62 -14 -103 16 -110 80 -1 14
-8 37 -15 52 -13 26 -12 36 8 68 5 8 12 23 15 33 8 24 31 21 50 -7z m-414 4
c0 -5 -5 -10 -11 -10 -5 0 -7 5 -4 10 3 6 8 10 11 10 2 0 4 -4 4 -10z m80 0
c0 -5 -6 -10 -14 -10 -8 0 -18 5 -21 10 -3 6 3 10 14 10 12 0 21 -4 21 -10z
m228 -45 c10 -21 9 -27 -3 -31 -25 -10 -45 4 -45 31 0 34 33 34 48 0z m1680
-8 c4 -19 -20 -32 -42 -24 -9 4 -12 14 -9 27 7 26 46 24 51 -3z m642 2 c0 -5
-7 -9 -15 -9 -15 0 -20 12 -9 23 8 8 24 -1 24 -14z m-1110 -34 c9 -11 10 -19
2 -27 -14 -14 -32 -1 -32 23 0 23 13 25 30 4z m77 -11 c10 -27 -14 -40 -37
-19 -11 10 -17 22 -14 26 9 15 44 10 51 -7z m-712 -18 c25 -18 13 -46 -20 -46
-27 0 -41 20 -31 45 7 19 26 19 51 1z m988 -10 c3 -8 0 -21 -6 -30 -11 -15
-15 -15 -32 -2 -16 12 -17 16 -6 30 17 20 37 21 44 2z m-1085 -19 c2 -12 -3
-17 -17 -17 -12 0 -21 6 -21 13 0 31 32 34 38 4z m492 13 c0 -5 -4 -10 -10
-10 -5 0 -10 5 -10 10 0 6 5 10 10 10 6 0 10 -4 10 -10z m353 -12 c8 -23 -11
-47 -33 -41 -21 6 -24 12 -14 37 7 19 40 21 47 4z m-98 -28 c3 -5 1 -10 -4
-10 -6 0 -11 5 -11 10 0 6 2 10 4 10 3 0 8 -4 11 -10z m-2207 -54 c3 -13 -1
-17 -14 -14 -11 2 -20 11 -22 22 -3 13 1 17 14 14 11 -2 20 -11 22 -22z m2532
14 c0 -5 -4 -10 -9 -10 -6 0 -13 5 -16 10 -3 6 1 10 9 10 9 0 16 -4 16 -10z
m-270 -42 c0 -16 -3 -19 -11 -11 -6 6 -8 16 -5 22 11 17 16 13 16 -11z m-2072
-21 c4 -21 -25 -34 -40 -19 -8 8 -8 16 2 27 16 19 34 15 38 -8z m1172 -3 c0
-2 -7 -4 -15 -4 -8 0 -15 4 -15 10 0 5 7 7 15 4 8 -4 15 -8 15 -10z m1140 -44
c0 -5 -4 -10 -10 -10 -5 0 -10 5 -10 10 0 6 5 10 10 10 6 0 10 -4 10 -10z
m-2324 -9 c17 14 34 3 34 -22 0 -16 -7 -19 -45 -19 -30 0 -45 4 -45 13 0 20
22 39 34 27 6 -6 14 -6 22 1z m404 -5 c20 -25 9 -61 -19 -61 -36 0 -50 29 -27
54 23 25 30 26 46 7z m-470 -41 c0 -8 -4 -15 -10 -15 -5 0 -10 7 -10 15 0 8 5
15 10 15 6 0 10 -7 10 -15z m112 -30 c0 -5 -5 -11 -11 -13 -6 -2 -11 4 -11 13
0 9 5 15 11 13 6 -2 11 -8 11 -13z m2927 2 c8 -10 7 -17 -1 -25 -18 -18 -38
-14 -38 6 0 32 20 42 39 19z m-434 -17 c0 -22 -29 -18 -33 3 -3 14 1 18 15 15
10 -2 18 -10 18 -18z m-612 -10 c-5 -20 -33 -29 -33 -10 0 7 25 27 37 30 0 0
-1 -9 -4 -20z m-1699 -66 c11 -30 6 -72 -10 -78 -45 -17 -61 6 -38 59 15 37
38 46 48 19z m126 -4 c0 -11 -7 -20 -15 -20 -8 0 -15 9 -15 20 0 11 7 20 15
20 8 0 15 -9 15 -20z m146 -19 c-10 -16 -36 -13 -43 5 -8 22 18 37 36 20 7 -8
10 -19 7 -25z m-393 -8 c10 -9 -13 -34 -25 -27 -5 3 -15 0 -23 -6 -8 -6 -19
-9 -25 -5 -15 9 9 38 27 31 7 -3 13 -1 13 4 0 11 23 13 33 3z m-473 -37 c0
-40 -11 -56 -36 -56 -17 0 -24 -6 -24 -20 0 -22 -15 -27 -26 -9 -3 6 -1 14 5
18 6 4 9 15 6 23 -10 25 23 68 51 68 19 0 24 -5 24 -24z m3295 -6 c4 -6 1 -18
-6 -26 -11 -13 -14 -13 -27 0 -8 8 -11 19 -8 25 9 14 33 14 41 1z m-2840 -19
c3 -5 1 -12 -5 -16 -5 -3 -10 1 -10 9 0 18 6 21 15 7z m2630 -3 c14 -6 25 -19
24 -27 -1 -9 1 -24 6 -34 5 -12 3 -24 -7 -33 -16 -17 -48 -9 -48 11 0 8 -9 17
-20 20 -21 7 -37 46 -25 64 8 14 38 14 70 -1z m-2889 -9 c10 -17 -13 -36 -27
-22 -12 12 -4 33 11 33 5 0 12 -5 16 -11z m-493 -51 c8 -12 7 -21 -2 -32 -21
-25 -50 -20 -57 10 -11 42 36 59 59 22z m867 -24 c0 -8 -4 -14 -10 -14 -5 0
-10 -9 -10 -20 0 -11 -7 -20 -15 -20 -18 0 -20 21 -3 38 7 7 8 12 4 12 -5 0
-3 7 4 15 14 17 30 11 30 -11z m2710 -19 c0 -8 -4 -15 -9 -15 -5 0 -14 7 -21
15 -10 13 -9 15 9 15 12 0 21 -6 21 -15z m-2961 -23 c12 -22 -3 -42 -31 -42
-23 0 -24 20 0 20 16 1 16 1 0 14 -10 7 -15 16 -11 19 12 13 32 7 42 -11z
m-1429 -36 c0 -7 -7 -19 -15 -26 -8 -7 -15 -20 -15 -29 0 -9 -7 -4 -15 13 -9
16 -13 36 -11 43 7 18 56 17 56 -1z m-114 -11 c4 -8 -1 -26 -10 -40 -14 -21
-20 -24 -37 -15 -27 15 -34 37 -19 55 16 19 59 19 66 0z m174 5 c0 -5 -4 -10
-10 -10 -5 0 -10 5 -10 10 0 6 5 10 10 10 6 0 10 -4 10 -10z m938 -8 c18 -12
4 -42 -19 -42 -12 0 -19 7 -19 18 0 30 14 39 38 24z m542 -17 c0 -9 -9 -14
-22 -14 -13 1 -36 -3 -51 -10 -25 -10 -28 -9 -25 6 5 29 98 46 98 18z m4093
-77 c-7 -73 -10 -81 -18 -42 -3 16 -9 47 -14 69 -11 47 -6 59 19 45 16 -8 17
-18 13 -72z m-5463 53 c7 -14 7 -22 -1 -27 -13 -8 -41 24 -33 37 9 15 23 10
34 -10z m4060 10 c0 -6 -4 -13 -10 -16 -5 -3 -10 1 -10 9 0 9 5 16 10 16 6 0
10 -4 10 -9z m-4554 -23 c5 -13 7 -27 6 -32 -9 -30 -8 -104 0 -120 6 -11 14
-60 19 -110 5 -50 13 -118 18 -151 22 -141 23 -165 7 -165 -9 0 -16 -7 -16
-15 0 -17 16 -20 26 -4 14 23 25 -11 31 -96 4 -65 3 -89 -7 -95 -18 -11 -3
-29 19 -23 16 4 21 -1 25 -29 24 -170 24 -160 4 -154 -18 4 -18 3 1 -27 13
-20 28 -31 40 -30 15 2 24 -13 45 -71 31 -89 31 -89 5 -81 -15 5 -19 4 -15 -4
4 -6 3 -11 -2 -11 -12 0 -49 87 -57 131 -3 20 -19 54 -35 74 -36 45 -52 97
-44 145 4 27 -1 48 -20 85 -22 40 -26 61 -25 115 1 51 -3 73 -20 100 -16 28
-21 51 -21 111 0 48 -6 91 -16 115 -12 28 -15 55 -10 97 4 42 2 66 -9 87 -38
73 -26 180 20 180 16 0 26 -8 31 -22z m121 11 c9 -9 6 -59 -4 -59 -33 0 -58
52 -30 63 19 8 22 8 34 -4z m5951 -5 c28 -19 28 -32 0 -43 -26 -10 -38 2 -38
37 0 26 8 27 38 6z m-1928 -4 c0 -5 -4 -10 -10 -10 -5 0 -10 5 -10 10 0 6 5
10 10 10 6 0 10 -4 10 -10z m-2299 -23 c-9 -11 -8 -17 4 -27 19 -16 19 -39 0
-46 -20 -8 -45 13 -38 32 3 7 -2 16 -10 20 -23 9 -9 32 21 36 34 4 38 2 23
-15z m2938 10 c14 -18 -21 -52 -44 -44 -15 6 -21 38 -8 50 11 12 40 8 52 -6z
m992 -30 c-12 -30 -29 -35 -38 -12 -7 19 27 59 39 47 5 -5 4 -20 -1 -35z m79
-26 c0 -21 -16 -2 -24 29 -7 24 -6 24 8 6 9 -11 16 -27 16 -35z m-5312 16 c2
-10 -3 -17 -12 -17 -9 0 -16 2 -16 4 0 2 -3 12 -6 21 -5 13 -2 16 12 13 10 -2
20 -11 22 -21z m3806 3 l54 -21 36 20 36 20 10 -20 c11 -20 11 -20 50 2 42 24
70 20 70 -9 0 -30 -27 -48 -51 -34 -27 17 -39 15 -39 -7 0 -33 -25 -44 -59
-26 l-31 16 0 -30 c0 -34 -15 -49 -61 -57 -19 -4 -47 -13 -62 -21 -35 -18 -65
-9 -78 24 -11 30 -12 76 -1 69 4 -2 14 -1 21 3 9 6 8 16 -8 45 -12 20 -21 39
-21 41 0 13 85 3 134 -15z m1787 10 c26 -14 24 -34 -5 -53 -14 -9 -35 -44 -51
-84 -23 -58 -28 -91 -36 -223 -16 -274 -29 -382 -61 -505 -17 -66 -35 -142
-40 -170 -19 -105 -29 -136 -58 -198 -16 -35 -30 -69 -30 -75 0 -6 -16 -40
-35 -75 -19 -35 -35 -70 -35 -79 0 -20 -66 -95 -75 -86 -5 4 -3 13 3 20 6 7
19 33 29 58 10 25 36 79 58 120 40 77 115 294 141 410 31 141 54 323 60 490 3
96 10 189 15 205 18 64 45 132 67 166 12 20 22 48 22 63 0 29 3 31 31 16z
m140 -17 c8 -14 14 -46 14 -69 0 -34 -5 -47 -22 -59 -22 -15 -34 -43 -13 -30
6 4 11 -13 12 -42 4 -95 1 -114 -21 -129 -22 -16 -29 -47 -8 -39 9 4 12 -13
11 -67 0 -91 -2 -113 -10 -105 -4 3 -15 2 -25 -3 -16 -9 -17 -4 -13 68 3 42 7
88 10 102 6 31 24 218 31 323 2 42 8 77 12 77 4 0 14 -12 22 -27z m-4890 -4
c16 -8 18 -13 8 -25 -17 -20 -49 -18 -49 4 0 32 11 37 41 21z m4349 -28 c0
-21 -26 -36 -36 -20 -6 11 13 39 27 39 5 0 9 -9 9 -19z m140 -39 c0 -15 -2
-15 -10 -2 -13 20 -13 33 0 25 6 -3 10 -14 10 -23z m-4603 2 c9 -23 -11 -38
-26 -20 -13 16 -7 36 10 36 5 0 12 -7 16 -16z m-990 -71 c-2 -16 -4 -3 -4 27
0 30 2 43 4 28 2 -16 2 -40 0 -55z m383 58 c15 -30 12 -92 -7 -113 -9 -10 -19
-18 -22 -18 -3 0 -6 34 -6 75 0 77 13 97 35 56z m3880 -7 c0 -8 -9 -14 -20
-14 -22 0 -26 10 -8 28 13 13 28 7 28 -14z m1071 -56 c-4 -30 -4 -65 1 -77 10
-28 -7 -27 -26 1 -23 33 -20 94 5 119 11 11 22 19 24 17 2 -2 0 -29 -4 -60z
m-5013 -5 c-2 -20 -9 -39 -17 -41 -11 -4 -12 0 -6 14 4 11 7 29 6 42 0 12 4
22 10 22 6 0 9 -16 7 -37z m-238 10 c0 -5 -7 -26 -15 -48 l-15 -40 4 40 c3 22
5 43 5 48 1 4 6 7 11 7 6 0 10 -3 10 -7z m1443 -4 c-7 -7 -9 -24 -6 -39 3 -20
0 -29 -12 -34 -25 -9 -35 1 -35 38 0 39 6 46 39 46 19 0 22 -3 14 -11z m3982
-24 c0 -16 -6 -30 -12 -32 -9 -3 -13 7 -13 32 0 25 4 35 13 33 6 -3 12 -17 12
-33z m-5559 -128 c6 -100 -11 -75 -21 29 -3 38 -8 80 -10 94 -3 20 -1 18 11
-8 8 -19 17 -70 20 -115z m5661 121 c-3 -8 -6 -5 -6 6 -1 11 2 17 5 13 3 -3 4
-12 1 -19z m-4369 1 c-2 -6 -8 -10 -13 -10 -5 0 -11 4 -13 10 -2 6 4 11 13 11
9 0 15 -5 13 -11z m-1238 -20 c0 -11 -4 -18 -10 -14 -5 3 -7 12 -3 20 7 21 13
19 13 -6z m1650 6 c0 -8 -4 -15 -9 -15 -13 0 -22 16 -14 24 11 11 23 6 23 -9z
m-1528 -67 c-7 -7 -12 -8 -12 -2 0 14 12 26 19 19 2 -3 -1 -11 -7 -17z m746
-15 c-5 -26 -38 -29 -38 -4 0 15 6 21 21 21 14 0 19 -5 17 -17z m4691 -28 c0
-5 -4 -3 -9 5 -5 8 -9 22 -9 30 0 16 17 -16 18 -35z m-5259 10 c0 -28 -17 -34
-27 -9 -3 9 0 20 8 25 19 12 19 12 19 -16z m1395 5 c-3 -5 -10 -10 -16 -10 -5
0 -9 5 -9 10 0 6 7 10 16 10 8 0 12 -4 9 -10z m2915 -21 c0 -25 -33 -22 -38 4
-2 12 3 17 17 17 15 0 21 -6 21 -21z m186 -54 c14 -19 30 -35 34 -35 4 0 23
14 41 30 35 33 65 36 83 8 13 -22 0 -47 -35 -65 -13 -7 -20 -13 -15 -13 5 0 4
-6 -2 -12 -18 -23 -31 -130 -28 -233 2 -55 4 -115 5 -132 1 -30 21 -49 21 -20
0 26 21 87 30 87 5 0 7 -15 4 -32 -4 -30 -3 -31 6 -9 8 19 13 21 25 11 8 -7
15 -9 15 -4 0 4 5 3 11 -3 17 -17 -10 -80 -37 -87 -16 -4 -24 -15 -26 -37 l-3
-30 -38 50 c-20 28 -44 51 -51 51 -8 0 -16 11 -20 24 -5 21 -10 23 -58 19 -77
-6 -185 -32 -248 -60 -81 -37 -230 -93 -243 -93 -7 1 9 9 34 19 70 27 311 150
331 168 12 11 18 30 18 57 0 29 -3 37 -10 26 -5 -8 -11 -12 -13 -10 -7 9 -28
143 -34 210 -2 36 -9 70 -14 75 -5 6 -29 15 -52 22 l-42 11 62 1 c34 1 65 6
68 12 15 23 112 50 137 37 9 -4 29 -24 44 -43z m-3179 39 c-3 -3 -12 -4 -19
-1 -8 3 -5 6 6 6 11 1 17 -2 13 -5z m3801 -11 c5 -17 -26 -29 -40 -15 -6 6 -7
15 -3 22 9 14 37 9 43 -7z m-5058 -34 c12 -22 13 -79 1 -79 -16 0 -29 24 -36
68 -6 36 -5 41 9 36 9 -4 21 -15 26 -25z m3610 21 c0 -5 -2 -10 -4 -10 -3 0
-8 5 -11 10 -3 6 -1 10 4 10 6 0 11 -4 11 -10z m290 -9 c0 -6 -5 -13 -10 -16
-15 -9 -43 3 -35 15 8 13 45 13 45 1z m-3132 -6 c-3 -3 -34 -10 -68 -16 -35
-5 -77 -16 -95 -23 -33 -14 -33 -14 -23 -63 5 -26 8 -79 8 -118 -2 -158 0
-199 12 -207 7 -4 36 -8 64 -8 66 0 198 -38 333 -96 58 -25 108 -48 111 -51 7
-8 -49 6 -85 21 -126 54 -175 67 -168 44 3 -7 -56 8 -66 17 -3 3 1 10 8 14 9
6 -9 11 -48 16 -92 11 -251 -24 -251 -54 0 -16 -51 -71 -61 -65 -5 3 -9 21 -9
40 0 24 -5 34 -15 34 -8 0 -15 5 -15 10 0 6 -12 9 -27 8 -24 -3 -28 1 -28 22
0 14 -4 31 -9 39 -7 11 -14 5 -28 -24 -14 -26 -23 -34 -30 -27 -6 6 -18 8 -27
5 -13 -4 -13 -3 -2 5 7 5 10 15 6 21 -8 14 -35 -4 -35 -24 0 -7 -7 -19 -17
-26 -23 -20 -82 -113 -98 -157 -10 -28 -14 -31 -14 -15 -1 30 27 100 55 138
20 28 46 121 27 100 -28 -31 -64 -87 -91 -141 -39 -78 -57 -94 -77 -68 -12 17
-11 23 8 54 11 19 27 46 36 60 8 14 34 55 59 93 40 61 49 68 96 82 43 12 59
13 108 1 52 -12 57 -11 72 6 32 37 61 17 75 -53 l9 -44 2 55 c1 30 2 59 1 63
-1 4 -8 57 -16 117 -7 60 -19 118 -25 129 -9 18 -6 23 29 40 50 26 330 67 309
46z m4248 -17 c-2 -7 -10 -30 -17 -50 -7 -21 -18 -38 -26 -38 -21 0 -16 57 7
80 22 22 45 27 36 8z m152 -56 c-5 -45 -28 -38 -28 8 0 37 2 41 16 30 8 -7 14
-25 12 -38z m-3889 -95 c0 -107 -14 -212 -19 -152 -2 17 -3 37 -2 45 1 8 2 61
3 117 1 56 6 100 10 97 5 -3 9 -51 8 -107z m-1510 73 c18 0 13 -18 -8 -30 -13
-7 -22 -7 -26 0 -3 5 -1 10 4 10 6 0 11 5 11 10 0 6 -7 10 -15 10 -16 0 -20
12 -8 24 4 4 13 0 19 -8 6 -9 16 -16 23 -16z m171 15 c0 -8 -4 -15 -10 -15 -5
0 -10 7 -10 15 0 8 5 15 10 15 6 0 10 -7 10 -15z m5122 -25 c3 -16 1 -30 -3
-30 -13 0 -31 40 -25 56 9 22 23 9 28 -26z m-4822 5 c0 -8 -7 -15 -15 -15 -8
0 -15 7 -15 15 0 8 7 15 15 15 8 0 15 -7 15 -15z m-300 -92 c1 -10 14 -34 30
-53 17 -19 30 -40 30 -47 0 -6 -14 -25 -31 -41 l-31 -29 15 -61 c11 -45 13
-71 6 -103 -6 -23 -7 -55 -4 -71 4 -15 2 -28 -3 -28 -22 0 -30 28 -25 85 3 33
-1 83 -8 112 l-12 52 35 31 35 31 -20 42 c-11 23 -27 50 -35 59 -8 9 -11 22
-7 27 10 17 25 13 25 -6z m5130 -32 c0 -13 -64 -111 -72 -111 -16 0 -7 48 12
73 11 14 20 30 20 36 0 6 9 11 20 11 11 0 20 -4 20 -9z m500 -70 c0 -49 -4
-67 -17 -77 -10 -7 -20 -14 -24 -14 -4 0 -5 154 0 155 0 1 10 1 21 1 18 0 20
-7 20 -65z m-392 -25 c8 -15 12 -29 10 -31 -7 -7 -36 21 -43 44 -10 33 16 23
33 -13z m-3889 -186 c1 -57 -19 10 -23 81 l-5 74 14 -65 c8 -36 14 -76 14 -90z
m3565 46 c65 -67 139 -188 134 -218 -6 -35 -23 -23 -44 30 -27 68 -71 134
-131 200 -71 75 -33 65 41 -12z m-2434 38 c-100 -12 -144 -25 -129 -37 2 -2
31 -1 64 4 104 13 294 10 382 -7 46 -8 98 -14 116 -12 l32 3 -24 13 c-13 8
-85 22 -160 32 -75 10 -118 18 -96 19 52 1 240 -26 263 -37 9 -5 42 -15 72
-22 30 -7 60 -16 65 -20 6 -4 33 -12 60 -19 119 -29 167 -43 202 -58 l37 -15
-34 -15 -35 -14 24 -18 c17 -13 20 -20 10 -23 -28 -9 -174 47 -199 77 -14 17
-151 63 -230 77 -30 5 -75 14 -100 18 -74 14 -300 11 -396 -5 -96 -16 -343
-97 -384 -125 -56 -39 -155 -81 -201 -87 -54 -6 -62 4 -30 36 11 11 17 22 14
24 -2 3 14 4 36 4 23 -1 41 -5 41 -9 0 -17 31 -6 81 28 30 20 56 40 58 46 2 6
-24 7 -70 3 -88 -9 -84 5 6 25 33 7 96 25 140 41 78 29 249 74 310 82 17 2 66
4 110 4 l80 1 -115 -14z m2645 -21 c-9 -49 -9 -110 0 -151 5 -21 3 -37 -5 -47
-17 -20 -33 -9 -20 14 6 13 5 35 -3 67 -15 60 -3 154 21 154 11 0 13 -8 7 -37z
m472 -53 c2 -55 -5 -71 -41 -100 -18 -14 -18 -13 -11 20 5 19 8 58 7 86 -2 48
-1 52 20 50 21 -1 23 -7 25 -56z m-719 -14 c51 -67 99 -162 113 -223 12 -55
14 -256 2 -277 -4 -8 -8 40 -8 107 0 101 -4 133 -23 188 -28 82 -76 162 -126
211 -21 21 -35 42 -31 47 10 17 33 1 73 -53z m-88 44 c0 -5 -4 -10 -10 -10 -5
0 -10 -9 -10 -20 0 -11 -4 -20 -10 -20 -5 0 -10 4 -10 9 0 5 -3 16 -6 24 -3
10 2 17 13 20 30 8 33 7 33 -3z m-370 -20 c11 -7 4 -10 -27 -10 -24 0 -43 5
-43 10 0 13 50 13 70 0z m818 -42 c14 -14 16 -67 2 -88 -7 -11 -10 -5 -10 23
0 21 -5 47 -10 58 -12 21 -1 26 18 7z m-4254 -39 c50 -16 100 -34 111 -39 11
-5 38 -17 60 -26 78 -32 14 -25 -92 10 -126 41 -209 54 -242 36 -19 -10 -22
-17 -17 -43 7 -34 42 -77 63 -77 8 0 19 -13 24 -30 9 -23 20 -32 52 -40 78
-20 216 -74 221 -87 7 -18 -15 -16 -42 2 -24 18 -107 45 -136 45 -15 0 -16 -3
-6 -15 10 -13 9 -15 -10 -15 -44 0 -100 -23 -100 -40 0 -24 -10 -31 -31 -19
-24 12 -24 28 -1 36 9 4 23 14 29 24 7 9 31 20 54 24 22 4 38 9 36 11 -2 3
-40 6 -83 8 -74 3 -79 4 -94 31 -12 22 -60 55 -60 41 0 -2 18 -35 40 -72 44
-76 47 -84 25 -84 -8 0 -15 -5 -15 -11 0 -19 -19 2 -36 39 -9 20 -22 48 -29
62 -7 14 -14 30 -14 35 -1 6 -5 10 -10 10 -5 0 -29 18 -52 39 -35 31 -39 37
-19 31 49 -16 64 -12 75 23 5 17 15 32 22 32 7 0 13 5 13 10 0 6 -7 10 -16 10
-27 0 -10 21 36 46 62 34 130 32 244 -7z m3351 1 c17 0 26 -8 33 -27 9 -28 9
-28 16 -5 6 18 12 21 29 16 12 -3 30 -15 41 -26 15 -16 17 -24 7 -45 -7 -15
-17 -23 -25 -20 -17 7 -36 -11 -36 -34 0 -9 -10 -19 -22 -22 -26 -7 -38 -1
-38 20 0 12 3 13 14 4 12 -10 17 -8 25 7 8 15 7 23 -4 32 -13 10 -19 10 -34
-4 -14 -13 -28 -16 -57 -11 -34 6 -37 6 -22 -6 18 -14 15 -59 -3 -59 -5 0 -9
-6 -9 -14 0 -8 -15 -16 -38 -20 -21 -3 -99 -33 -172 -66 -74 -33 -136 -58
-138 -56 -2 3 21 21 52 42 55 36 56 38 56 85 0 26 3 55 7 64 5 16 0 17 -44 11
-28 -3 -59 -9 -68 -13 -12 -4 -16 -2 -14 6 3 7 40 25 84 41 44 15 107 40 139
54 66 30 164 57 184 50 8 -2 24 -4 37 -4z m-2490 -10 c-3 -5 0 -10 7 -10 7 0
-9 -11 -36 -25 -26 -13 -51 -24 -55 -23 -3 1 -14 -2 -24 -7 -25 -10 -32 0 -20
28 11 24 57 44 106 46 16 1 26 -3 22 -9z m-140 -30 c-3 -5 -14 -10 -23 -10
-15 0 -15 2 -2 10 20 13 33 13 25 0z m-1035 -20 c0 -5 -4 -10 -10 -10 -5 0
-10 5 -10 10 0 6 5 10 10 10 6 0 10 -4 10 -10z m-466 -75 c-9 -28 -19 -90 -23
-140 l-8 -90 -2 81 c-1 69 16 165 36 197 12 21 11 -3 -3 -48z m5077 12 c-8 -8
-11 -7 -11 4 0 20 13 34 18 19 3 -7 -1 -17 -7 -23z m-181 -23 c0 -25 -4 -43
-9 -40 -11 7 -23 65 -15 77 13 22 24 5 24 -37z m419 -6 c0 -37 -16 -100 -18
-74 -1 5 -8 3 -16 -4 -24 -20 -37 -2 -20 30 8 16 15 40 15 53 0 27 7 37 27 37
9 0 13 -13 12 -42z m-1081 -6 c-20 -22 -43 -60 -53 -85 -20 -52 -20 -52 -55
-32 l-25 15 29 -2 c24 -3 30 2 39 27 11 35 73 115 89 115 6 0 -5 -17 -24 -38z
m511 -95 c10 -75 5 -205 -8 -254 -4 -15 -6 33 -3 107 3 104 1 150 -12 198 -19
77 -19 99 0 54 8 -19 19 -66 23 -105z m-5018 70 c-8 -8 -11 -4 -11 14 0 33 14
47 18 19 2 -12 -1 -27 -7 -33z m5267 11 c13 -27 2 -78 -17 -78 -9 0 -21 48
-21 87 0 31 20 26 38 -9z m-2550 -15 c-16 -2 -40 -2 -55 0 -16 2 -3 4 27 4 30
0 43 -2 28 -4z m1700 -8 c-4 -11 -28 -16 -28 -6 0 12 13 22 23 18 5 -1 7 -7 5
-12z m-1938 -20 c-58 -13 -135 -35 -173 -49 -37 -14 -73 -26 -80 -25 -6 0 27
16 76 34 92 36 201 63 252 63 17 0 -17 -10 -75 -23z m487 -11 c-3 -3 -12 -4
-19 -1 -8 3 -5 6 6 6 11 1 17 -2 13 -5z m121 -39 c30 -9 52 -19 49 -21 -5 -6
-99 24 -117 37 -13 9 -13 10 0 5 8 -2 39 -12 68 -21z m-593 -5 c-11 -5 -29 -8
-40 -8 -16 0 -15 2 5 8 34 11 60 11 35 0z m-2726 -25 c11 6 44 -59 57 -112 6
-23 4 -24 -16 -18 -17 5 -21 4 -15 -6 5 -9 2 -9 -9 1 -9 9 -27 48 -40 88 -21
65 -22 71 -5 56 10 -9 23 -13 28 -9z m368 -12 c-3 -10 -5 -4 -5 12 0 17 2 24
5 18 2 -7 2 -21 0 -30z m5011 1 c4 -49 -22 -187 -36 -192 -11 -3 -12 12 -7 79
9 121 14 151 28 146 7 -2 13 -17 15 -33z m-2793 16 c-4 -6 -24 -19 -46 -31
-30 -15 -47 -18 -66 -12 l-26 9 25 16 c39 25 126 39 113 18z m-1160 -31 c62
-23 92 -43 55 -35 -14 2 -53 12 -87 21 -112 31 -138 4 -89 -93 13 -26 27 -58
31 -72 9 -32 46 -113 100 -220 82 -163 100 -196 130 -235 36 -49 193 -219 206
-223 6 -3 8 109 6 290 -5 324 -10 360 -67 424 -20 24 -28 40 -22 46 28 28 94
-61 113 -153 5 -30 12 -155 13 -279 3 -165 9 -262 25 -365 11 -77 21 -160 21
-184 l0 -44 -21 27 c-14 18 -22 42 -22 69 l0 42 -10 -32 c-6 -19 -17 -33 -26
-33 -12 -1 -9 -6 9 -20 14 -11 31 -25 38 -30 6 -6 12 -30 11 -53 l0 -42 -19
51 c-17 41 -32 59 -87 99 -81 59 -245 221 -267 263 -9 17 -32 48 -51 69 -52
56 -159 229 -237 382 -37 74 -68 136 -68 138 0 1 8 3 18 3 11 0 36 -36 78
-113 34 -61 90 -164 124 -227 35 -63 70 -128 79 -145 l16 -30 3 29 c2 16 -1
33 -7 39 -6 6 -11 19 -11 29 0 9 -22 62 -50 116 -27 54 -50 107 -50 116 0 10
-13 35 -30 56 -16 21 -44 71 -61 111 -17 41 -44 88 -60 104 -35 37 -26 61 18
52 26 -5 31 -1 48 30 11 19 29 39 40 44 27 11 98 1 160 -22z m935 -12 c-60
-30 -89 -50 -98 -69 -13 -28 -42 -39 -42 -17 0 24 69 75 136 101 100 39 102
33 4 -15z m1045 33 c3 -6 -1 -7 -9 -4 -18 7 -21 14 -7 14 6 0 13 -4 16 -10z
m-1900 -10 c3 -5 -1 -10 -10 -10 -9 0 -13 5 -10 10 3 6 8 10 10 10 2 0 7 -4
10 -10z m1902 -2 c38 0 98 -21 108 -38 4 -6 10 -8 15 -5 12 7 60 -53 60 -76 0
-14 -7 -19 -25 -19 -31 0 -33 16 -4 25 21 7 21 7 -4 33 -15 14 -29 23 -32 20
-3 -3 1 -13 10 -21 8 -9 15 -18 15 -21 0 -20 -188 54 -203 80 -4 8 -15 14 -22
14 -8 0 -15 5 -15 11 0 7 11 8 31 4 17 -4 47 -7 66 -7z m1087 -7 c6 -10 -22
-99 -37 -118 -5 -7 -13 -11 -17 -8 -8 5 -27 -57 -28 -98 -2 -34 -46 -123 -67
-135 -9 -4 -22 -30 -29 -58 -17 -66 -42 -111 -64 -118 -18 -6 -49 -84 -54
-136 -2 -19 -10 -26 -29 -28 -21 -2 -26 -7 -22 -23 4 -14 0 -19 -16 -19 -14 0
-21 -6 -21 -19 0 -19 -63 -75 -74 -64 -9 9 -15 -15 -25 -92 -6 -49 -9 -58 -10
-31 0 21 -8 44 -16 50 -12 9 -13 22 -4 81 6 39 9 178 7 310 -3 275 5 321 67
390 l36 40 -21 -35 c-22 -39 -26 -55 -9 -44 7 4 9 0 5 -14 -25 -77 -32 -257
-17 -431 l6 -75 41 65 c23 35 51 91 63 124 12 33 32 73 43 90 17 23 50 125 71
220 2 6 6 15 10 22 13 20 25 103 15 103 -5 0 -27 -9 -48 -19 -22 -11 -40 -15
-40 -10 0 10 58 38 145 69 53 20 130 26 139 11z m81 -1 c3 -5 1 -10 -4 -10 -6
0 -11 5 -11 10 0 6 2 10 4 10 3 0 8 -4 11 -10z m-635 -37 c-11 -17 -11 -17 -6
0 3 10 6 24 7 30 0 9 2 9 5 0 3 -7 0 -20 -6 -30z m1786 -17 c-4 -23 -12 -45
-18 -51 -8 -7 -9 -6 -3 4 6 10 4 12 -4 7 -7 -5 -10 -14 -7 -21 3 -8 -2 -11
-14 -8 -17 4 -17 7 2 63 15 43 24 57 35 53 12 -5 14 -16 9 -47z m-3286 34 c0
-5 -4 -10 -10 -10 -5 0 -10 5 -10 10 0 6 5 10 10 10 6 0 10 -4 10 -10z m2080
-30 c-16 -31 -23 -19 -9 16 6 16 13 24 16 17 2 -7 -1 -22 -7 -33z m-360 5 c-7
-8 -20 -15 -29 -15 -12 0 -10 5 9 20 28 21 39 18 20 -5z m1286 1 c7 -28 -2
-49 -17 -41 -12 8 -12 65 1 65 5 0 12 -11 16 -24z m-3888 -3 c2 -8 -5 -13 -17
-13 -21 0 -35 13 -24 24 10 10 36 3 41 -11z m32 -7 c0 -3 -4 -8 -10 -11 -5 -3
-10 -1 -10 4 0 6 5 11 10 11 6 0 10 -2 10 -4z m723 -35 c3 -12 -1 -22 -10 -25
-8 -3 -11 -1 -8 4 3 6 1 10 -4 10 -6 0 -11 7 -11 15 0 22 27 18 33 -4z m-1223
-121 c12 -46 97 -199 262 -477 11 -18 16 -33 11 -33 -29 0 -303 489 -303 540
0 32 18 14 30 -30z m4303 16 c3 -8 -1 -20 -9 -26 -12 -10 -14 -8 -14 14 0 28
14 35 23 12z m-5205 -40 c28 -32 48 -73 40 -81 -1 -2 -25 17 -52 41 -31 28
-46 50 -42 59 8 23 21 18 54 -19z m4272 -52 c-11 -33 -25 -74 -31 -92 -6 -19
-13 -31 -16 -28 -3 3 10 51 28 107 19 56 35 95 37 87 2 -9 -6 -42 -18 -74z
m1120 46 c0 -11 -3 -20 -7 -20 -5 0 -16 -14 -25 -30 -16 -29 -38 -40 -38 -20
0 13 53 89 63 90 4 0 7 -9 7 -20z m-1006 -67 c-85 -192 -255 -497 -296 -531
-22 -18 -39 1 -32 35 4 18 17 36 35 47 16 9 29 14 29 10 0 -12 36 39 58 81 11
22 40 78 64 125 24 47 53 99 64 115 12 17 29 47 38 68 9 20 23 53 31 72 8 19
19 35 25 35 5 0 -3 -26 -16 -57z m-4374 -16 c27 -47 28 -49 5 -22 -29 34 -62
90 -47 81 6 -3 24 -30 42 -59z m1766 8 c-18 -14 -16 -45 3 -45 6 0 8 7 5 15
-7 17 4 19 26 5 12 -8 10 -14 -13 -38 -15 -15 -27 -35 -27 -43 0 -7 -9 1 -20
19 -11 18 -20 39 -20 48 0 28 20 54 43 54 21 -1 21 -1 3 -15z m1922 -43 c2
-12 -1 -22 -7 -22 -6 0 -11 -7 -11 -15 0 -8 -5 -15 -11 -15 -6 0 -8 7 -5 17 4
10 4 14 0 10 -4 -4 -13 1 -19 10 -11 15 -9 19 9 29 28 16 40 12 44 -14z m1623
-15 c-10 -9 -11 -8 -5 6 3 10 9 15 12 12 3 -3 0 -11 -7 -18z m-3264 -139 c125
-209 143 -241 137 -247 -4 -3 -9 0 -11 7 -3 7 -15 25 -27 40 -35 43 -96 139
-111 175 -8 19 -20 39 -27 45 -8 6 -20 27 -28 47 -7 19 -17 35 -22 35 -4 0 -8
5 -8 12 0 23 49 -35 97 -114z m1410 84 c-10 -10 -17 -21 -17 -25 0 -12 -122
-208 -127 -204 -6 6 69 146 109 205 16 23 34 42 40 42 6 0 4 -8 -5 -18z m739
-39 c-8 -15 -15 -22 -16 -15 0 17 20 55 27 49 2 -3 -2 -18 -11 -34z m-2007
-33 c0 -11 -3 -10 -14 4 -8 11 -15 27 -15 35 0 11 4 10 15 -5 8 -10 14 -26 14
-34z m931 27 c0 -26 -25 -65 -35 -55 -3 3 -2 14 4 25 5 10 12 26 15 36 8 24
16 21 16 -6z m1196 -44 c-8 -15 -15 -25 -16 -21 0 12 23 58 27 54 3 -2 -2 -17
-11 -33z m-1162 9 c3 -5 -1 -9 -9 -9 -8 0 -15 4 -15 9 0 4 4 8 9 8 6 0 12 -4
15 -8z m1012 -46 c-9 -26 -16 -54 -16 -64 0 -9 -4 -24 -10 -32 -7 -11 -11 -9
-19 14 -12 31 -5 76 12 73 6 -1 18 13 26 30 21 47 25 33 7 -21z m-3666 7 c28
-42 144 -159 222 -226 33 -27 67 -47 91 -51 24 -5 37 -12 37 -23 0 -21 -64 -9
-107 20 -77 55 -235 223 -268 288 -22 41 -5 36 25 -8z m1730 -4 c0 -6 -4 -7
-10 -4 -5 3 -10 11 -10 16 0 6 5 7 10 4 6 -3 10 -11 10 -16z m2614 -51 c-16
-24 -74 -88 -130 -144 -85 -85 -109 -103 -148 -113 -26 -6 -49 -18 -53 -26 -3
-9 10 -49 28 -90 31 -72 34 -95 9 -80 -14 9 -70 124 -70 143 0 9 -7 11 -21 7
-15 -5 -20 -3 -17 6 3 8 17 14 32 15 14 1 37 11 49 23 13 11 33 21 45 21 32 0
191 150 263 249 40 54 51 45 13 -11z m-567 15 c-8 -16 -26 -53 -41 -83 -15
-30 -32 -63 -39 -73 -10 -16 -8 -21 13 -35 45 -31 70 -61 70 -87 0 -14 -4 -25
-10 -25 -5 0 -10 11 -10 24 0 36 -31 68 -70 71 -21 2 -28 0 -19 -5 10 -7 8
-14 -11 -32 -14 -13 -34 -36 -45 -51 -11 -15 -45 -49 -75 -74 l-55 -47 37 41
c47 53 163 226 217 326 23 42 44 77 47 77 2 0 -2 -12 -9 -27z m-151 -118 c-7
-18 -26 -20 -26 -2 0 18 24 41 28 27 2 -6 1 -17 -2 -25z m-2926 -72 c0 -7 4
-13 9 -13 5 0 27 -25 50 -55 23 -30 49 -62 60 -72 10 -10 40 -43 67 -73 27
-30 52 -55 54 -55 3 0 24 -15 45 -34 43 -36 38 -34 -42 17 -29 19 -53 37 -53
42 0 15 -155 168 -177 175 -13 3 -23 13 -23 21 0 32 -44 10 -73 -38 -21 -33
-21 -38 -3 -38 8 0 16 -7 20 -15 3 -8 15 -15 26 -15 11 0 23 7 26 15 7 17 40
20 49 5 3 -5 1 -19 -6 -31 -9 -18 -17 -21 -49 -16 -28 3 -40 1 -44 -9 -7 -18
-35 -18 -55 0 -13 12 -37 17 -113 25 -5 1 -8 7 -8 14 0 10 15 12 60 9 l60 -4
0 46 c0 60 12 81 55 102 19 9 35 24 35 33 1 13 3 13 15 -3 8 -11 15 -26 15
-33z m753 -1 c-3 -12 -9 -22 -14 -22 -12 0 -11 7 3 30 15 24 19 21 11 -8z
m-193 -67 l0 -85 -24 10 c-21 8 -25 6 -28 -13 -2 -12 -7 15 -12 60 -8 88 -3
111 19 93 9 -7 16 -6 25 5 7 8 14 15 16 15 2 0 4 -38 4 -85z m1954 60 c7 -29
-3 -105 -16 -122 -25 -31 -36 24 -22 110 7 42 29 49 38 12z m330 -68 c11 -10
8 -19 -17 -47 -23 -26 -26 -28 -14 -8 10 16 13 29 7 33 -9 5 -3 35 7 35 2 0
10 -6 17 -13z m157 -10 c-13 -13 -26 -3 -16 12 3 6 11 8 17 5 6 -4 6 -10 -1
-17z m-3260 -23 c9 -11 7 -14 -14 -14 -13 0 -39 3 -56 6 -27 6 -29 8 -15 18
20 15 69 9 85 -10z m229 11 c0 -8 -7 -15 -15 -15 -16 0 -20 12 -8 23 11 12 23
8 23 -8z m2986 -32 c-11 -11 -19 6 -11 24 8 17 8 17 12 0 3 -10 2 -21 -1 -24z
m-1651 -117 c46 -48 57 -73 25 -56 -35 19 -150 144 -150 163 0 11 67 -47 125
-107z m1762 101 c6 -10 27 -12 81 -7 39 3 72 2 72 -1 0 -10 -40 -19 -86 -19
-25 0 -47 -6 -54 -15 -9 -11 -16 -12 -26 -4 -7 6 -17 8 -23 5 -12 -8 -41 3
-41 15 0 5 11 11 25 15 14 3 25 10 25 15 0 14 18 11 27 -4z m-3322 -7 c3 -5 1
-10 -4 -10 -6 0 -11 5 -11 10 0 6 2 10 4 10 3 0 8 -4 11 -10z m306 -28 c-10
-19 -61 -58 -61 -46 0 7 63 70 68 67 2 -1 -1 -10 -7 -21z m-511 -16 c0 -7 -7
-19 -15 -26 -12 -10 -16 -9 -21 5 -4 10 -1 21 7 26 20 12 29 11 29 -5z m3930
-11 c0 -8 -7 -15 -15 -15 -8 0 -15 7 -15 15 0 8 7 15 15 15 8 0 15 -7 15 -15z
m-2910 -10 c12 -14 5 -75 -9 -75 -11 0 -33 68 -26 80 9 14 20 12 35 -5z m573
-10 c4 -8 3 -16 -1 -19 -13 -8 -35 11 -28 23 10 15 23 14 29 -4z m1902 -15 c3
-5 1 -10 -4 -10 -6 0 -11 5 -11 10 0 6 2 10 4 10 3 0 8 -4 11 -10z m-1785 -41
c8 -14 7 -19 -2 -19 -24 0 -41 18 -35 35 8 19 22 13 37 -16z m473 -7 c-39 -33
-123 -86 -128 -80 -4 4 145 107 155 107 3 0 -9 -12 -27 -27z m-1656 -7 c93
-16 153 -38 153 -56 0 -16 -93 -4 -187 23 -70 20 -81 27 -66 41 8 9 4 9 100
-8z m1738 -15 c-2 -4 -17 -7 -32 -7 -24 0 -25 1 -9 13 18 13 50 9 41 -6z
m1225 10 c0 -5 -8 -10 -17 -10 -15 0 -16 2 -3 10 19 12 20 12 20 0z m250 0 c0
-5 -4 -10 -10 -10 -5 0 -10 5 -10 10 0 6 5 10 10 10 6 0 10 -4 10 -10z m-1950
-62 c11 -23 20 -43 20 -44 0 -6 -77 -24 -102 -24 -23 0 -28 4 -28 24 0 19 -7
26 -37 33 l-37 9 49 19 c28 10 56 24 63 32 20 19 48 0 72 -49z m1272 16 c-3
-24 -7 -32 -12 -23 -9 16 -1 71 9 64 4 -2 5 -20 3 -41z m376 37 c15 -9 -125
-51 -171 -51 -47 0 -29 18 31 31 31 6 71 15 87 19 40 11 38 11 53 1z m-1549
-57 c14 9 41 -4 41 -20 0 -8 -5 -13 -11 -11 -6 1 -12 -12 -13 -30 -1 -27 2
-32 17 -27 34 11 16 -13 -23 -31 -50 -23 -44 -33 7 -13 21 9 66 15 101 14 68
-1 80 7 30 19 -32 8 -32 8 -7 12 20 3 26 9 22 22 -5 21 54 72 90 77 12 2 32 6
45 10 13 4 22 2 22 -5 0 -10 -21 -15 -57 -14 -7 0 -11 -2 -10 -6 4 -16 -26
-52 -40 -47 -23 9 -10 -17 15 -30 12 -6 37 -26 55 -45 18 -19 44 -35 58 -36
41 -4 84 -10 89 -13 9 -5 24 -8 55 -10 25 -1 27 -3 10 -9 -15 -6 -22 -23 -30
-67 -7 -43 -15 -60 -27 -62 -15 -3 -18 4 -18 38 0 23 5 50 10 61 7 12 7 19 1
19 -6 0 -16 -18 -22 -41 l-13 -40 -56 2 c-31 1 -61 -1 -68 -4 -6 -4 -13 -3
-17 3 -3 6 1 13 9 16 9 3 16 11 16 16 0 6 -6 8 -14 5 -9 -4 -16 3 -20 16 -10
36 -7 44 16 50 18 5 20 8 8 22 -13 15 -15 15 -22 -4 -10 -28 -28 -27 -29 2 0
12 -3 16 -6 10 -2 -7 -12 -13 -22 -13 -24 0 -41 -20 -41 -47 0 -16 -8 -27 -24
-33 -24 -9 -41 -56 -24 -66 13 -8 -1 -24 -22 -24 -24 0 -36 20 -19 31 10 6 11
9 2 9 -7 0 -13 7 -13 15 0 8 5 15 10 15 6 0 5 6 -2 14 -18 19 -25 4 -21 -44 3
-40 3 -40 -33 -40 -23 0 -33 -4 -28 -11 3 -6 1 -22 -7 -35 -7 -13 -10 -27 -6
-30 10 -10 27 6 27 26 0 27 28 40 60 28 17 -5 36 -5 52 1 21 8 24 15 22 45 -2
20 1 36 6 36 12 0 41 -60 34 -71 -6 -10 -1 -11 20 -3 11 4 13 11 6 30 -10 25
-4 54 11 54 5 0 9 -4 9 -10 0 -5 7 -10 15 -10 8 0 15 -4 15 -10 0 -5 -7 -10
-15 -10 -17 0 -19 -56 -2 -77 7 -9 5 -13 -5 -13 -11 0 -14 -8 -11 -27 3 -27 3
-27 -7 -5 -5 13 -8 28 -5 32 8 14 -16 23 -27 12 -8 -8 -8 -16 1 -26 7 -9 11
-21 8 -28 -4 -9 -8 -6 -12 7 -10 30 -55 61 -65 45 -4 -7 -3 -19 3 -25 7 -7 14
-9 15 -4 7 17 22 9 22 -11 0 -11 -6 -20 -14 -20 -23 0 -25 -10 -14 -75 10 -65
28 -98 28 -52 0 45 15 30 32 -30 l16 -58 2 50 c2 77 18 26 19 -62 1 -77 8
-106 22 -97 6 3 7 40 3 89 -4 46 -3 92 0 102 7 17 8 17 18 -1 6 -10 13 -56 16
-102 4 -77 12 -98 26 -75 3 4 1 37 -4 72 -20 130 -20 133 -9 122 6 -6 15 -26
19 -45 l8 -33 1 38 c1 20 5 37 11 37 12 0 30 -66 30 -115 0 -22 5 -47 11 -55
19 -27 -2 131 -27 204 -13 39 -21 72 -19 75 3 2 5 -1 5 -8 0 -8 8 -11 20 -8
21 5 30 -18 9 -25 -7 -2 -7 -11 0 -28 5 -14 10 -19 10 -12 2 24 21 11 36 -24
12 -30 35 -167 35 -212 0 -9 -12 -12 -40 -10 -22 1 -42 -1 -46 -5 -4 -3 -15
-2 -25 4 -15 7 -21 6 -25 -5 -3 -8 -19 -14 -41 -14 -24 0 -39 -6 -49 -21 -17
-24 -49 -28 -58 -6 -3 8 -3 43 0 77 3 36 1 74 -5 88 -9 21 -10 13 -8 -43 1
-37 -1 -67 -5 -67 -5 0 -8 -9 -8 -19 0 -17 -7 -19 -66 -17 -55 2 -68 0 -77
-16 -9 -13 -24 -18 -55 -18 -39 0 -43 2 -37 20 6 18 2 20 -34 20 l-41 0 0 60
c0 66 17 160 32 175 6 7 13 3 20 -10 11 -19 12 -18 25 10 11 26 13 16 9 -90
-4 -113 -4 -115 4 -33 10 102 17 131 33 125 8 -3 12 -37 12 -105 0 -55 5 -105
10 -111 7 -7 10 26 11 97 0 59 3 127 5 151 6 52 29 69 29 22 0 -18 5 -30 11
-29 20 5 30 -53 27 -151 -2 -66 1 -96 9 -98 9 -3 11 24 8 106 -4 103 -3 112
16 130 23 21 20 51 -6 51 -22 0 -18 17 5 23 17 4 20 10 14 34 -4 15 -11 32
-15 37 -5 6 -9 19 -9 30 0 18 -2 19 -15 6 -9 -9 -12 -24 -8 -38 4 -18 8 -20
14 -10 6 9 9 7 9 -8 0 -25 -35 -28 -50 -4 -7 10 -10 11 -10 3 0 -8 -13 -13
-30 -13 -20 0 -30 5 -30 15 0 8 -4 15 -10 15 -5 0 -10 7 -10 15 0 8 -7 15 -15
15 -8 0 -14 -3 -14 -7 1 -5 1 -18 0 -30 -1 -31 -21 -29 -21 1 0 37 -52 50 -76
19 -16 -21 -19 -67 -4 -58 12 7 40 -12 40 -26 0 -5 -12 -4 -26 2 -15 5 -29 8
-31 5 -10 -10 -36 -128 -47 -215 -8 -64 -16 -97 -26 -101 -57 -28 -114 -42
-137 -33 -24 10 -13 23 20 23 17 0 39 5 47 10 18 11 20 11 -49 16 -30 3 -57 7
-60 9 -2 3 1 39 7 81 19 120 93 284 129 284 8 0 11 -5 7 -12 -5 -8 -2 -9 9 -5
22 8 22 8 -8 -58 -25 -54 -57 -171 -68 -247 -4 -26 -2 -38 6 -38 8 0 17 31 24
83 12 86 39 169 73 226 29 45 36 33 12 -21 -10 -24 -22 -62 -25 -83 l-6 -40
13 38 c6 22 20 43 29 49 11 6 16 16 12 27 -5 18 21 81 39 93 6 4 7 10 3 14 -3
4 -13 1 -22 -6 -9 -8 -15 -8 -15 -2 0 6 5 14 10 17 6 3 10 11 10 18 0 8 -3 8
-12 -1 -17 -17 -38 -15 -38 3 0 8 -5 15 -11 15 -6 0 -8 8 -5 18 3 9 1 24 -5
32 -9 13 -10 13 -8 0 4 -37 -2 -50 -22 -50 -12 0 -19 5 -16 13 2 6 -2 20 -10
29 -8 9 -21 33 -28 53 -11 34 -16 37 -54 40 -49 4 -62 12 -41 25 14 9 54 5
102 -10 17 -6 30 -5 34 1 4 7 10 7 16 1 9 -9 60 -7 114 3 12 3 35 18 51 35 16
16 53 38 83 48 30 10 55 23 57 28 2 6 -7 21 -19 34 -12 13 -29 38 -38 56 l-17
32 48 -30 c27 -16 53 -27 58 -24z m-299 6 c12 -8 9 -10 -13 -10 -16 0 -26 4
-22 10 8 12 16 12 35 0z m664 -22 c6 -27 5 -28 -38 -28 -25 0 -47 4 -51 9 -8
13 24 29 46 24 12 -3 21 1 25 11 8 20 9 19 18 -16z m686 7 c0 -8 -9 -15 -20
-15 -20 0 -26 11 -13 23 12 13 33 7 33 -8z m-900 -20 c0 -8 -7 -15 -15 -15
-16 0 -20 12 -8 23 11 12 23 8 23 -8z m-1305 -64 c3 -5 1 -12 -5 -16 -5 -3
-10 1 -10 9 0 18 6 21 15 7z m210 -41 c3 -5 1 -10 -4 -10 -6 0 -11 5 -11 10 0
6 2 10 4 10 3 0 8 -4 11 -10z m2000 0 c3 -5 1 -10 -4 -10 -6 0 -11 5 -11 10 0
6 2 10 4 10 3 0 8 -4 11 -10z m265 -5 c0 -8 -4 -15 -10 -15 -5 0 -10 7 -10 15
0 8 5 15 10 15 6 0 10 -7 10 -15z m-1854 -25 c8 0 14 -4 14 -10 0 -5 -16 -10
-35 -10 -33 0 -43 8 -28 24 4 3 13 4 21 1 7 -3 20 -5 28 -5z m1214 -9 c0 -4
-28 -11 -61 -14 -74 -6 -115 5 -49 14 72 10 110 10 110 0z m-460 -30 c0 -26
-10 -51 -21 -51 -10 0 -12 31 -3 54 9 22 24 20 24 -3z m-53 -23 c-3 -8 -6 -5
-6 6 -1 11 2 17 5 13 3 -3 4 -12 1 -19z m-1192 -31 c-23 -12 -49 11 -34 30 10
11 15 11 31 -4 17 -15 17 -18 3 -26z m2235 14 c0 -10 -30 -24 -37 -17 -3 3 -2
9 2 15 8 13 35 15 35 2z m-2132 -120 c32 -67 37 -158 9 -189 -10 -10 -17 -23
-17 -29 0 -11 -22 -23 -42 -23 -5 0 2 14 16 31 24 28 26 38 26 118 0 83 -2 91
-30 126 -34 43 -40 67 -10 40 11 -10 32 -43 48 -74z m2052 60 c0 -6 -12 -23
-26 -38 -24 -27 -25 -27 -13 -3 20 41 39 62 39 41z m-788 -16 c5 -6 8 -6 8 3
0 6 11 12 25 12 14 0 25 -4 25 -10 0 -5 -7 -10 -15 -10 -8 0 -15 -8 -15 -18 0
-14 -8 -19 -30 -19 -22 0 -30 5 -30 19 0 10 -3 17 -7 17 -22 -4 -53 2 -53 10
0 12 83 9 92 -4z m-1417 -71 c0 -32 -3 -39 -19 -39 -16 0 -21 8 -23 41 -2 37
0 40 20 39 19 -1 22 -8 22 -41z m1345 19 c0 -13 -3 -13 -15 -3 -8 7 -12 16 -9
21 8 13 24 1 24 -18z m990 -34 c0 -20 -4 -27 -14 -23 -16 6 -27 40 -19 60 9
23 33 -4 33 -37z m-937 3 c10 -10 14 -22 10 -25 -12 -12 -20 -8 -31 18 -14 29
-2 33 21 7z m761 -54 c-6 -68 -4 -76 21 -112 33 -49 25 -58 -14 -15 -43 46
-59 127 -35 169 10 16 22 30 27 30 4 0 5 -33 1 -72z m-1251 45 c-4 -11 -3 -14
5 -9 7 4 12 2 12 -6 0 -7 -11 -13 -25 -13 -14 0 -25 3 -25 7 0 18 14 38 26 38
8 0 11 -6 7 -17z m447 -8 c0 -8 -4 -15 -10 -15 -5 0 -10 7 -10 15 0 8 5 15 10
15 6 0 10 -7 10 -15z m207 -54 c38 -68 71 -165 81 -236 l9 -65 -44 -2 c-24 -1
-53 -2 -65 -2 -11 -1 -22 6 -23 14 -1 8 -5 43 -9 78 -4 35 -18 99 -32 144 -28
88 -26 111 4 51 11 -21 27 -52 36 -70 9 -17 19 -61 21 -97 4 -61 17 -106 32
-106 12 0 -7 129 -27 180 -11 29 -19 57 -17 63 7 21 50 -100 61 -171 11 -70
26 -89 26 -32 0 36 -60 221 -77 238 -7 7 -13 17 -13 22 0 5 -3 16 -7 26 -13
34 19 8 44 -35z m-1519 2 c4 -24 -27 -40 -39 -21 -10 15 9 50 24 45 7 -2 13
-13 15 -24z m1480 -24 c-3 -9 -12 0 -22 21 l-18 35 22 -21 c12 -12 20 -28 18
-35z m-189 1 c0 -10 -3 -8 -9 5 -12 27 -12 43 0 25 5 -8 9 -22 9 -30z m956 20
c0 -7 -6 -15 -12 -17 -8 -3 -13 4 -13 17 0 13 5 20 13 18 6 -3 12 -11 12 -18z
m-1337 -1 c-2 -6 -8 -10 -13 -10 -5 0 -11 4 -13 10 -2 6 4 11 13 11 9 0 15 -5
13 -11z m68 -16 c-10 -10 -19 5 -10 18 6 11 8 11 12 0 2 -7 1 -15 -2 -18z m84
2 c0 -8 -4 -15 -10 -15 -5 0 -10 7 -10 15 0 8 5 15 10 15 6 0 10 -7 10 -15z
m124 0 c3 -8 1 -15 -4 -15 -6 0 -10 7 -10 15 0 8 2 15 4 15 2 0 6 -7 10 -15z
m-1136 -52 c2 -12 -4 -23 -13 -27 -32 -12 -48 17 -23 42 17 17 32 10 36 -15z
m782 2 c0 6 5 3 9 -5 14 -23 -20 -238 -39 -250 -38 -24 -43 -14 -36 74 4 46
12 99 17 118 6 18 12 40 13 48 1 9 6 22 11 30 7 11 10 10 16 -6 4 -10 8 -14 9
-9z m134 -1 c5 -14 4 -15 -9 -4 -17 14 -19 20 -6 20 5 0 12 -7 15 -16z m-74
-4 c0 -5 -4 -10 -10 -10 -5 0 -10 5 -10 10 0 6 5 10 10 10 6 0 10 -4 10 -10z
m1310 -6 c0 -8 -4 -12 -10 -9 -5 3 -10 10 -10 16 0 5 5 9 10 9 6 0 10 -7 10
-16z m-803 -260 c-3 -3 -12 -4 -19 -1 -8 3 -5 6 6 6 11 1 17 -2 13 -5z m93 -4
c0 -5 -6 -10 -14 -10 -8 0 -18 5 -21 10 -3 6 3 10 14 10 12 0 21 -4 21 -10z
m-922 -14 c15 -8 36 -23 46 -35 19 -21 19 -21 -3 -21 -12 0 -35 -7 -51 -15
-16 -8 -36 -12 -45 -9 -9 4 -23 0 -33 -8 -9 -7 -29 -20 -44 -27 -36 -18 -26
-31 25 -32 23 -1 56 -5 72 -8 26 -6 22 -8 -30 -15 -33 -4 -65 -6 -70 -5 -18 6
-75 -20 -75 -33 0 -28 19 -41 54 -40 20 1 36 -3 36 -9 0 -11 40 -28 85 -36 29
-5 29 -5 10 10 -17 14 -18 16 -3 17 24 0 32 -18 17 -36 -10 -13 -10 -17 0 -23
8 -5 2 -8 -16 -8 -15 0 -48 -5 -73 -11 l-45 -10 37 -1 c20 -1 39 -5 43 -11 6
-10 153 -3 170 8 5 4 42 7 80 8 150 2 152 2 130 18 -11 7 -38 16 -59 19 -22 4
-44 13 -48 21 -6 11 -15 12 -41 5 -17 -5 -43 -9 -57 -9 l-25 0 25 20 c30 23
65 30 178 36 80 4 176 -9 186 -25 2 -3 -2 -15 -10 -26 -11 -15 -17 -17 -23 -7
-5 9 -14 10 -32 3 -21 -9 -22 -10 -4 -10 11 -1 30 -8 41 -16 12 -8 24 -12 27
-8 4 3 13 1 20 -5 8 -7 31 -11 53 -9 29 1 39 -2 42 -14 3 -18 -24 -29 -70 -29
-15 0 -30 -4 -33 -10 -3 -5 -16 -10 -28 -9 -20 1 -20 2 3 9 21 7 22 8 5 9 -12
1 -26 -4 -32 -10 -5 -5 -39 -12 -74 -13 -35 -2 -70 -4 -76 -5 -8 -1 -11 -10
-9 -23 3 -13 5 -33 5 -45 1 -14 7 -23 17 -23 8 0 12 -5 9 -10 -4 -6 -18 -10
-33 -10 -15 1 -51 -2 -80 -6 -49 -6 -52 -8 -37 -24 23 -26 15 -71 -20 -102
-16 -15 -25 -28 -18 -28 6 0 15 5 18 10 4 7 11 8 18 1 7 -5 23 -10 37 -10 55
-2 70 -5 60 -15 -6 -6 -28 -10 -51 -9 -29 1 -42 -4 -46 -16 -14 -35 -48 -41
-56 -9 -5 16 -9 19 -19 10 -10 -8 -19 -5 -37 14 -13 13 -18 24 -13 24 6 0 13
-4 17 -10 7 -11 55 8 55 22 0 13 -40 9 -41 -4 0 -8 -3 -7 -6 2 -10 25 -31 42
-35 28 -5 -15 -28 -1 -28 18 0 8 5 12 10 9 6 -3 14 5 20 19 5 14 17 26 26 26
13 0 14 3 4 15 -15 18 -9 19 25 3 18 -8 24 -17 20 -29 -4 -12 1 -21 17 -29 19
-9 21 -9 7 2 -11 10 -13 22 -8 46 6 30 5 33 -12 29 -10 -3 -22 -1 -25 4 -3 5
-18 9 -34 9 -16 0 -32 5 -35 10 -3 6 2 10 12 10 16 0 18 6 15 41 -5 44 -8 47
-78 59 l-49 8 44 1 c119 3 -36 20 -191 21 -10 0 -18 5 -18 10 0 6 23 10 50 10
28 0 50 5 50 10 0 6 -16 10 -36 10 -30 0 -34 3 -29 19 5 16 0 20 -27 26 -73
14 -98 47 -83 108 5 20 14 26 48 30 23 3 43 11 45 17 11 32 67 80 111 95 27 9
59 25 72 35 26 24 23 23 57 6z m992 -6 c10 0 11 -3 4 -10 -7 -7 -19 -8 -37 -1
-33 13 -36 26 -4 17 12 -3 29 -6 37 -6z m78 -35 c2 -38 -3 -40 -45 -24 l-28
11 28 24 c37 32 44 30 45 -11z m-701 4 c15 -7 45 -15 66 -18 51 -8 52 -25 1
-29 -37 -3 -41 -5 -42 -31 -1 -27 3 -29 46 -36 37 -5 43 -9 29 -17 -22 -12
-246 -16 -309 -5 -53 9 -65 27 -18 27 17 0 30 5 30 13 0 6 14 18 31 26 35 15
33 21 -12 30 -53 11 -48 31 8 32 26 0 66 4 88 8 22 5 43 9 47 10 4 0 19 -4 35
-10z m820 -55 c24 -26 41 -50 38 -54 -3 -5 5 -12 17 -16 27 -8 57 -43 58 -67
0 -10 -11 -22 -27 -28 -52 -20 -58 -31 -21 -43 18 -6 32 -15 31 -21 -3 -13
-95 -25 -109 -14 -5 5 -27 6 -48 2 -32 -5 -38 -3 -43 16 -3 11 -12 21 -20 21
-13 0 -13 3 -3 15 16 20 30 19 30 -1 0 -11 5 -14 16 -10 9 3 25 6 36 6 12 0
18 3 15 6 -4 4 3 19 14 35 l19 28 -26 26 c-14 15 -33 24 -42 21 -10 -3 -35 -1
-57 4 l-40 8 45 1 c25 1 52 6 60 11 13 9 10 14 -14 34 -18 15 -30 35 -31 51
-1 24 2 26 30 21 18 -4 47 -24 72 -52z m-323 26 c10 -10 -5 -15 -29 -11 -5 1
6 -14 26 -34 28 -28 45 -37 78 -40 72 -5 56 -13 -46 -21 -126 -11 -251 -9
-283 4 -23 9 -22 10 21 17 65 10 75 18 61 49 -10 21 -16 24 -45 19 -19 -3 -43
0 -53 6 -16 9 -13 10 21 11 22 0 47 5 55 11 18 12 180 3 194 -11z m-1 -188
c58 -8 59 -28 1 -24 -29 3 -43 -1 -47 -11 -3 -8 -25 -17 -52 -20 -39 -6 -75
-25 -75 -40 0 -2 13 -2 30 1 20 3 32 -1 35 -10 7 -17 55 -12 67 6 5 8 13 7 28
-1 11 -7 28 -13 39 -13 11 0 21 6 24 13 3 9 10 9 28 -2 13 -8 38 -18 54 -21
l30 -7 -25 -12 c-21 -10 -17 -11 32 -7 32 3 60 0 63 -5 6 -9 -2 -12 -44 -13
-16 -1 -30 -11 -40 -29 -9 -16 -27 -34 -40 -41 -22 -12 -19 -14 38 -20 107
-12 68 -26 -71 -25 -138 1 -199 9 -165 22 20 8 24 67 5 68 -10 0 -10 2 -1 6
25 9 -17 36 -55 36 -21 -1 -54 3 -75 9 -35 8 -38 12 -35 41 3 30 6 32 48 37
l45 5 -34 18 c-19 9 -48 17 -65 17 -32 0 -26 14 9 23 30 7 193 6 248 -1z m174
-78 c-3 -3 -12 -4 -19 -1 -8 3 -5 6 6 6 11 1 17 -2 13 -5z m153 -65 c8 -1 -3
-5 -25 -8 -42 -7 -58 -5 -51 8 4 6 36 6 76 0z m-1413 -5 c-3 -3 -12 -4 -19 -1
-8 3 -5 6 6 6 11 1 17 -2 13 -5z m40 0 c-3 -3 -12 -4 -19 -1 -8 3 -5 6 6 6 11
1 17 -2 13 -5z m198 -166 c-1 -14 -9 -24 -21 -27 -10 -1 -26 -9 -35 -17 -20
-18 -27 -10 -22 20 4 17 10 22 24 19 11 -3 21 1 25 11 9 24 31 19 29 -6z
m-235 -13 c0 -8 -4 -15 -10 -15 -5 0 -10 7 -10 15 0 8 5 15 10 15 6 0 10 -7
10 -15z m68 -5 c-7 -10 -14 -17 -17 -15 -4 4 18 35 25 35 2 0 -1 -9 -8 -20z
m357 -59 c-3 -6 -11 -11 -17 -11 -6 0 -6 6 2 15 14 17 26 13 15 -4z m-115
-101 c0 -5 -5 -10 -11 -10 -5 0 -7 5 -4 10 3 6 8 10 11 10 2 0 4 -4 4 -10z
m90 0 c0 -5 -5 -10 -11 -10 -5 0 -7 5 -4 10 3 6 8 10 11 10 2 0 4 -4 4 -10z
m-143 -6 c-3 -3 -12 -4 -19 -1 -8 3 -5 6 6 6 11 1 17 -2 13 -5z m223 -29 c-7
-8 -17 -12 -22 -9 -6 4 -5 10 3 15 22 14 33 10 19 -6z m-148 -37 c-7 -7 -12
-8 -12 -2 0 14 12 26 19 19 2 -3 -1 -11 -7 -17z m53 -18 c3 -5 -1 -10 -10 -10
-9 0 -13 5 -10 10 3 6 8 10 10 10 2 0 7 -4 10 -10z m-57 -19 c11 -7 11 -9 -1
-14 -9 -3 -18 1 -21 9 -6 16 2 18 22 5z m540 -20 c-2 -9 -19 -24 -38 -33 -19
-10 -39 -28 -44 -40 -8 -20 -10 -20 -13 -6 -7 29 28 97 51 100 31 6 47 -2 44
-21z m-408 9 c0 -5 -7 -7 -16 -3 -9 3 -4 -6 11 -21 15 -15 33 -25 41 -22 21 8
43 -4 37 -20 -3 -9 1 -14 12 -14 15 0 16 -2 4 -16 -12 -15 -15 -13 -26 15 -13
31 -28 45 -16 15 5 -13 2 -15 -13 -10 -15 4 -24 -2 -38 -25 -11 -19 -23 -28
-33 -25 -8 3 -24 6 -35 6 -11 0 -18 5 -15 13 5 13 9 13 46 2 17 -5 22 -4 19 6
-3 8 -11 14 -18 14 -7 0 -15 6 -18 14 -3 9 0 11 8 6 15 -9 6 9 -18 37 -7 9
-11 22 -7 27 8 14 75 15 75 1z m-85 -42 c7 -7 2 -8 -14 -3 -17 5 -21 4 -16 -5
6 -9 3 -9 -13 -1 -31 16 -39 14 -46 -14 -4 -14 -11 -25 -17 -25 -8 0 -7 5 1
15 7 9 8 15 2 15 -8 0 -9 17 -3 37 2 7 97 -11 106 -19z m235 8 c0 -2 -7 -7
-16 -10 -8 -3 -12 -2 -9 4 6 10 25 14 25 6z m275 -16 c-3 -6 0 -13 8 -16 8 -3
15 -17 15 -30 0 -21 -3 -23 -12 -12 -7 7 -18 25 -24 41 -10 23 -9 27 4 27 8 0
12 -5 9 -10z m-535 -52 c0 -6 -7 -7 -16 -4 -9 3 -18 6 -20 6 -3 0 -3 4 1 10 7
11 35 2 35 -12z m142 -13 c-12 -22 -27 -2 -18 22 5 12 10 13 17 6 7 -7 8 -17
1 -28z m-174 -25 c0 -17 -4 -28 -9 -24 -5 3 -7 9 -4 14 3 5 1 11 -5 15 -6 4
-8 11 -5 16 12 18 22 8 23 -21z m612 -11 c0 -6 -4 -7 -10 -4 -5 3 -10 11 -10
16 0 6 5 7 10 4 6 -3 10 -11 10 -16z m-499 -27 c-5 -18 -9 -32 -8 -33 1 0 19
-2 40 -4 36 -4 86 -35 55 -35 -7 0 -20 4 -28 9 -10 7 -18 4 -28 -10 -7 -11
-17 -17 -22 -14 -5 3 -11 1 -15 -5 -11 -17 -43 11 -37 33 4 17 2 18 -17 8 -15
-9 -20 -18 -16 -32 7 -21 -5 -25 -22 -8 -14 14 -5 39 20 59 17 14 18 17 3 29
-25 21 -19 28 26 29 23 1 44 4 46 7 11 10 11 -2 3 -33z m-161 13 c0 -8 5 -15
12 -15 6 0 9 -3 5 -6 -3 -3 -15 -3 -26 1 -24 7 -29 35 -6 35 8 0 15 -7 15 -15z
m198 1 c-7 -8 -15 -12 -17 -11 -5 6 10 25 20 25 5 0 4 -6 -3 -14z m42 4 c0 -5
-2 -10 -4 -10 -3 0 -8 5 -11 10 -3 6 -1 10 4 10 6 0 11 -4 11 -10z m40 -21 c0
-11 -7 -19 -17 -19 -15 0 -15 2 -4 9 8 5 11 16 8 26 -4 9 -3 14 3 10 6 -3 10
-15 10 -26z m37 -1 c-3 -8 -6 -5 -6 6 -1 11 2 17 5 13 3 -3 4 -12 1 -19z m-77
-8 c0 -5 -4 -10 -10 -10 -5 0 -10 5 -10 10 0 6 5 10 10 10 6 0 10 -4 10 -10z
m-190 -35 c0 -9 -6 -12 -15 -9 -8 4 -12 10 -9 15 8 14 24 10 24 -6z m-45 -33
c-8 -2 -11 -10 -8 -20 4 -12 3 -14 -5 -7 -6 6 -9 20 -6 32 5 17 9 19 19 10 11
-10 11 -13 0 -15z m40 -31 c-3 -6 -11 -11 -17 -11 -6 0 -6 6 2 15 14 17 26 13
15 -4z m699 3 c18 -17 22 -39 6 -29 -11 7 -33 45 -26 45 2 0 12 -7 20 -16z
m-622 -6 c7 -17 -1 -38 -14 -38 -6 0 -7 7 -4 16 5 12 2 15 -10 10 -14 -5 -15
-4 -4 9 15 18 26 19 32 3z m123 -10 c4 4 2 -4 -4 -16 -7 -13 -10 -26 -7 -29 3
-4 0 -13 -7 -21 -10 -12 -9 -16 1 -20 9 -3 10 -8 2 -17 -16 -19 -1 -45 27 -45
13 0 22 -4 19 -8 -3 -5 -20 -7 -38 -4 -33 4 -33 4 -11 -12 13 -10 20 -23 17
-31 -4 -8 -1 -15 5 -15 6 0 11 -11 11 -25 0 -13 8 -28 17 -34 10 -5 14 -13 10
-17 -5 -5 -12 -3 -16 5 -6 10 -14 7 -35 -12 -14 -13 -26 -28 -26 -32 0 -10 58
-63 64 -58 3 3 17 -7 31 -22 15 -14 26 -28 24 -29 -11 -9 -49 -26 -60 -26 -8
0 -8 4 1 15 7 9 10 18 6 22 -11 11 -19 -6 -19 -38 0 -29 -2 -30 -14 -13 -7 10
-13 21 -13 26 0 4 -4 8 -10 8 -16 0 -12 -32 8 -53 16 -19 16 -19 -5 -13 -32
10 -29 -2 3 -14 22 -9 24 -13 14 -25 -8 -9 -9 -15 -2 -15 6 0 12 -12 14 -27 2
-22 8 -28 28 -28 21 0 25 -4 23 -28 -2 -24 1 -27 19 -21 19 6 21 3 15 -30 -4
-26 -2 -36 8 -36 14 0 25 -21 25 -51 0 -10 5 -19 10 -19 6 0 10 -11 10 -25 0
-17 7 -28 22 -34 14 -5 17 -10 10 -15 -17 -10 -15 -26 2 -26 10 0 14 -10 14
-30 -1 -40 -10 -38 -33 9 -11 22 -38 66 -60 98 -154 228 -187 282 -192 319 -6
46 -36 59 -48 21 -13 -47 -17 -274 -6 -362 12 -88 53 -260 91 -380 15 -47 72
-266 104 -398 3 -11 0 -17 -7 -14 -6 2 -14 14 -18 28 -3 13 -11 23 -17 22 -9
-2 -9 3 0 21 9 20 7 31 -12 61 -12 19 -19 42 -16 50 3 9 0 27 -6 41 -9 20 -17
24 -35 19 -13 -3 -23 -1 -23 5 0 5 12 10 28 10 24 1 25 2 10 14 -10 7 -16 22
-13 33 2 12 -5 38 -16 58 -11 20 -17 45 -14 55 3 10 -1 25 -10 33 -8 9 -13 22
-10 30 3 7 0 27 -6 43 -7 16 -13 36 -13 44 -1 8 -7 14 -13 13 -7 -2 -13 3 -13
10 0 7 6 19 13 26 6 8 7 11 2 8 -6 -3 -10 6 -9 21 1 15 -2 32 -7 37 -4 6 -8
26 -7 45 1 36 -7 103 -18 146 -5 21 -9 23 -23 12 -15 -12 -15 -11 0 7 11 14
16 37 15 72 -1 30 2 49 8 46 5 -4 6 4 3 18 -3 13 -2 31 3 39 6 9 5 17 -3 22
-9 6 -9 8 1 8 7 0 12 15 12 40 0 22 -5 40 -11 40 -6 0 -3 7 5 16 19 19 19 24
1 48 -16 21 -11 38 9 30 21 -8 29 14 12 31 -11 12 -12 21 -3 45 6 16 14 27 17
24 8 -9 6 -29 -4 -36 -17 -11 1 -20 24 -13 17 5 21 13 17 31 -2 13 1 25 7 28
6 2 3 5 -6 5 -10 1 -18 8 -18 16 0 18 4 19 30 3 17 -11 22 -10 30 2 14 22 12
34 -9 47 -16 10 -23 8 -45 -12 -14 -13 -28 -20 -31 -15 -3 5 3 14 12 20 13 8
14 13 6 16 -22 10 -14 22 18 29 26 6 30 10 25 31 -4 14 -2 24 4 24 6 0 9 -4 6
-9 -7 -10 24 -25 32 -16 3 3 -3 15 -15 26 -20 20 -22 20 -47 4 -30 -20 -33
-32 -8 -38 9 -3 3 -5 -15 -6 -17 0 -35 4 -38 9 -3 6 -2 10 3 10 5 0 12 14 16
30 3 17 12 30 20 30 10 0 13 -6 10 -17 -5 -17 -5 -17 6 0 6 9 8 22 5 27 -3 6
-1 10 4 10 15 0 14 30 -1 31 -14 0 20 17 38 18 6 1 10 -11 8 -26 -2 -16 -1
-20 2 -10 3 9 9 15 14 12 4 -3 6 5 3 17 -4 21 -3 22 10 6 8 -10 18 -14 22 -10z
m-345 -43 c0 -8 -8 -15 -18 -15 -10 0 -24 -6 -31 -12 -10 -11 -11 -10 -6 5 4
9 13 17 21 17 8 0 14 5 14 10 0 6 5 10 10 10 6 0 10 -7 10 -15z m165 5 c-3 -5
-3 -10 2 -10 15 0 13 -58 -3 -64 -11 -4 -14 0 -12 12 1 9 -1 23 -6 30 -9 16
-1 42 14 42 6 0 8 -4 5 -10z m192 -42 c-3 -8 -6 -5 -6 6 -1 11 2 17 5 13 3 -3
4 -12 1 -19z m-306 -41 c-10 -9 -11 -8 -5 6 3 10 9 15 12 12 3 -3 0 -11 -7
-18z m392 3 c-5 -19 -23 -29 -23 -12 0 7 20 32 26 32 1 0 0 -9 -3 -20z m-53 0
c0 -5 -5 -10 -11 -10 -5 0 -7 5 -4 10 3 6 8 10 11 10 2 0 4 -4 4 -10z m-199
-34 c7 4 10 3 7 -2 -14 -26 -25 -58 -27 -80 -1 -14 -4 -15 -22 -3 -23 16 -23
36 1 31 12 -2 13 -1 1 7 -9 6 -11 18 -7 36 6 22 10 25 21 15 8 -6 20 -8 26 -4z
m221 -50 c10 6 11 5 1 -8 -7 -8 -10 -18 -6 -21 3 -4 1 -7 -5 -7 -7 0 -12 6
-12 14 0 8 -7 16 -15 20 -8 3 -15 11 -15 17 0 7 8 5 19 -5 12 -11 25 -15 33
-10z m-131 -9 c-1 -12 -15 -9 -19 4 -3 6 1 10 8 8 6 -3 11 -8 11 -12z m179 3
c0 -5 -2 -10 -4 -10 -3 0 -8 5 -11 10 -3 6 -1 10 4 10 6 0 11 -4 11 -10z
m-385 -10 c-3 -5 -10 -10 -16 -10 -5 0 -9 5 -9 10 0 6 7 10 16 10 8 0 12 -4 9
-10z m125 -26 c0 -8 -5 -12 -10 -9 -6 4 -8 11 -5 16 9 14 15 11 15 -7z m307
-16 c-3 -8 -6 -5 -6 6 -1 11 2 17 5 13 3 -3 4 -12 1 -19z m-366 -17 c-6 -10
-7 -21 -4 -25 3 -3 -1 -6 -10 -6 -21 0 -21 5 0 30 22 25 27 26 14 1z m327 -31
c-7 -11 -15 -15 -17 -9 -2 6 3 15 10 20 20 12 21 11 7 -11z m-77 -13 c-7 -9
-22 -12 -43 -8 l-33 5 40 7 c22 3 42 7 44 8 2 0 -2 -5 -8 -12z m104 -55 c-3
-3 -11 0 -18 7 -9 10 -8 11 6 5 10 -3 15 -9 12 -12z m-38 -29 c-8 -9 -20 -12
-26 -9 -19 12 -12 24 15 24 23 0 24 -2 11 -15z m-33 -68 c-8 -20 13 -19 24 1
8 14 10 13 23 -2 9 -11 9 -15 2 -10 -14 8 -16 -1 -13 -46 1 -16 -4 -28 -10
-28 -8 0 -10 9 -6 24 4 18 2 24 -9 22 -8 -1 -18 -5 -21 -9 -11 -11 -26 -8 -19
3 8 13 -8 13 -22 -1 -8 -8 -13 -8 -17 0 -4 6 0 11 8 11 9 0 16 5 16 11 0 6 7
8 16 5 11 -4 15 -2 11 8 -6 15 1 26 14 26 5 0 6 -7 3 -15z m91 -34 c-6 -11
-45 -21 -45 -12 0 12 8 17 30 18 11 1 18 -2 15 -6z m-101 -78 c-21 -15 -30 -3
-20 23 5 14 9 14 22 3 14 -12 14 -14 -2 -26z m56 -83 c0 -5 -2 -10 -4 -10 -3
0 -8 5 -11 10 -3 6 -1 10 4 10 6 0 11 -4 11 -10z m260 -125 c0 -8 -4 -15 -10
-15 -5 0 -10 7 -10 15 0 8 5 15 10 15 6 0 10 -7 10 -15z m-15 -92 c-7 -67 -60
-255 -91 -325 -23 -51 -74 -63 -74 -17 0 16 5 19 19 14 25 -8 37 15 81 150 17
55 34 107 37 115 11 29 20 78 22 118 1 6 4 12 7 12 4 0 3 -30 -1 -67z m261 35
c-3 -13 -6 -41 -6 -63 0 -25 -3 -35 -8 -27 -6 8 -9 -5 -11 -33 -3 -79 -6 -93
-14 -88 -9 6 -4 107 7 133 3 8 8 31 10 50 2 19 4 38 5 43 0 4 6 7 12 7 7 0 9
-9 5 -22z m-411 -178 c-9 -14 -25 5 -25 30 0 12 3 12 16 -2 9 -9 13 -21 9 -28z
m362 -122 c-3 -7 -5 -2 -5 12 0 14 2 19 5 13 2 -7 2 -19 0 -25z m30 -120 c-3
-7 -5 -2 -5 12 0 14 2 19 5 13 2 -7 2 -19 0 -25z"/>
<path d="M4740 7850 c0 -5 5 -10 10 -10 6 0 10 5 10 10 0 6 -4 10 -10 10 -5 0
-10 -4 -10 -10z"/>
<path d="M4705 7820 c-4 -6 -14 -9 -22 -8 -22 4 -28 -18 -7 -26 17 -6 54 18
54 36 0 11 -18 10 -25 -2z"/>
<path d="M4570 7270 c6 -11 13 -20 15 -20 3 0 5 9 5 20 0 11 -7 20 -15 20 -13
0 -14 -4 -5 -20z"/>
<path d="M3567 6834 c-4 -4 -7 -24 -7 -45 0 -35 9 -46 45 -54 15 -4 14 53 -2
59 -7 3 -17 15 -21 26 -4 12 -11 18 -15 14z"/>
<path d="M3645 6760 c3 -5 10 -10 16 -10 5 0 9 5 9 10 0 6 -7 10 -16 10 -8 0
-12 -4 -9 -10z"/>
<path d="M3954 6567 c-8 -34 1 -46 14 -20 6 11 7 25 2 33 -6 10 -10 7 -16 -13z"/>
<path d="M4028 6553 c7 -3 16 -2 19 1 4 3 -2 6 -13 5 -11 0 -14 -3 -6 -6z"/>
<path d="M3890 6513 c0 -13 5 -23 10 -23 13 0 13 11 0 30 -8 12 -10 11 -10 -7z"/>
<path d="M5331 6436 c-9 -11 -7 -15 9 -19 22 -6 35 7 25 23 -9 14 -20 13 -34
-4z"/>
<path d="M5100 6420 c19 -13 30 -13 30 0 0 6 -10 10 -22 10 -19 0 -20 -2 -8
-10z"/>
<path d="M5240 6385 c0 -8 5 -15 10 -15 6 0 10 7 10 15 0 8 -4 15 -10 15 -5 0
-10 -7 -10 -15z"/>
<path d="M5334 6376 c-15 -12 -17 -18 -8 -33 6 -10 17 -18 25 -18 8 0 17 -4
22 -10 4 -6 12 -2 19 10 12 19 12 19 18 -5 4 -14 2 -31 -3 -37 -7 -10 -2 -13
21 -13 37 0 45 18 20 44 -13 14 -15 23 -7 32 6 7 8 18 4 24 -8 13 -32 13 -37
-1 -3 -8 -10 -6 -20 5 -20 20 -29 20 -54 2z"/>
<path d="M3529 6023 c5 -10 14 -31 20 -46 14 -36 38 -32 61 8 14 26 15 32 3
43 -11 11 -14 10 -19 -2 -8 -20 -30 -21 -38 -1 -3 8 -12 15 -21 15 -11 0 -13
-5 -6 -17z"/>
<path d="M3540 5899 c0 -5 5 -7 10 -4 6 3 10 8 10 11 0 2 -4 4 -10 4 -5 0 -10
-5 -10 -11z"/>
<path d="M5473 5865 c-9 -25 4 -29 17 -6 7 15 7 21 0 21 -6 0 -13 -7 -17 -15z"/>
<path d="M5760 6006 c0 -16 37 -28 46 -15 3 5 -2 9 -10 9 -9 0 -16 5 -16 10 0
6 -4 10 -10 10 -5 0 -10 -6 -10 -14z"/>
<path d="M2294 5356 c-18 -14 -18 -15 6 -20 67 -15 100 -10 100 14 0 17 -7 20
-43 20 -24 0 -52 -6 -63 -14z"/>
<path d="M2750 4931 c0 -5 7 -15 17 -22 15 -13 15 -12 4 9 -12 23 -21 28 -21
13z"/>
<path d="M6205 5030 c-4 -6 3 -10 14 -10 25 0 27 6 6 13 -8 4 -17 2 -20 -3z"/>
<path d="M3158 4235 c-3 -16 1 -30 13 -41 25 -22 24 -44 -1 -44 -28 0 -25 -13
7 -27 30 -14 63 -17 63 -5 0 4 -14 27 -30 52 -16 25 -30 53 -30 62 0 27 -17
30 -22 3z"/>
<path d="M3225 4059 c-4 -13 0 -27 11 -40 22 -25 27 -19 19 25 -8 40 -20 47
-30 15z"/>
<path d="M3352 3955 c0 -16 2 -22 5 -12 2 9 2 23 0 30 -3 6 -5 -1 -5 -18z"/>
<path d="M3435 3881 c-3 -6 4 -9 15 -8 11 1 20 5 20 9 0 11 -28 10 -35 -1z"/>
<path d="M5165 4831 c-29 -7 -30 -7 -8 -19 31 -17 59 -16 44 1 -6 8 -8 17 -4
20 3 4 4 6 2 6 -2 -1 -17 -4 -34 -8z"/>
<path d="M5720 4113 c0 -13 5 -23 10 -23 13 0 13 11 0 30 -8 12 -10 11 -10 -7z"/>
<path d="M4570 3545 c0 -11 4 -26 9 -33 6 -11 10 -10 15 4 4 10 0 24 -9 33
-13 14 -15 13 -15 -4z"/>
<path d="M4651 3542 c-13 -25 2 -38 19 -16 9 10 10 18 3 25 -8 8 -14 5 -22 -9z"/>
<path d="M4505 3530 c-3 -5 1 -10 10 -10 9 0 13 5 10 10 -3 6 -8 10 -10 10 -2
0 -7 -4 -10 -10z"/>
<path d="M4833 3515 c-3 -9 -3 -18 -1 -21 3 -3 8 4 11 16 6 23 -1 27 -10 5z"/>
<path d="M4438 3472 c4 -43 2 -52 -12 -52 -9 0 -16 4 -16 10 0 6 -10 5 -26 -2
-21 -10 -27 -9 -35 3 -7 11 -9 11 -9 0 0 -10 -8 -12 -30 -7 -22 4 -30 2 -30
-9 0 -7 5 -17 10 -20 6 -3 10 -2 10 4 0 5 18 9 40 9 31 0 40 -4 40 -18 0 -10
8 -20 19 -23 14 -3 17 0 14 13 -6 22 16 37 27 19 7 -10 11 -10 25 1 13 10 13
15 3 21 -10 7 -10 9 0 9 6 0 12 12 12 26 0 14 -4 23 -10 19 -5 -3 -15 7 -23
21 -14 26 -14 25 -9 -24z"/>
<path d="M4791 3504 c0 -11 3 -14 6 -6 3 7 2 16 -1 19 -3 4 -6 -2 -5 -13z"/>
<path d="M4381 3454 c0 -11 3 -14 6 -6 3 7 2 16 -1 19 -3 4 -6 -2 -5 -13z"/>
<path d="M4505 3443 c4 -10 8 -23 8 -30 0 -6 6 -9 12 -6 10 3 10 10 1 29 -12
27 -32 34 -21 7z"/>
<path d="M4330 3370 c0 -5 6 -10 14 -10 8 0 18 5 21 10 3 6 -3 10 -14 10 -12
0 -21 -4 -21 -10z"/>
<path d="M4165 3219 c-4 -6 -5 -12 -2 -15 2 -3 7 2 10 11 7 17 1 20 -8 4z"/>
<path d="M4211 3094 c0 -11 3 -14 6 -6 3 7 2 16 -1 19 -3 4 -6 -2 -5 -13z"/>
<path d="M4398 3019 c-1 -28 0 -53 5 -56 4 -2 7 21 7 51 0 70 -7 73 -12 5z"/>
<path d="M4190 2985 c0 -19 2 -35 4 -35 2 0 6 16 8 35 2 19 0 35 -4 35 -4 0
-8 -16 -8 -35z"/>
<path d="M4732 2975 c0 -16 2 -22 5 -12 2 9 2 23 0 30 -3 6 -5 -1 -5 -18z"/>
<path d="M4720 2930 c-8 -5 -11 -12 -7 -16 4 -4 15 0 24 9 18 18 8 23 -17 7z"/>
<path d="M4148 2243 c7 -3 16 -2 19 1 4 3 -2 6 -13 5 -11 0 -14 -3 -6 -6z"/>
<path d="M5255 2610 c-3 -5 1 -10 9 -10 9 0 16 5 16 10 0 6 -4 10 -9 10 -6 0
-13 -4 -16 -10z"/>
<path d="M4720 2529 c0 -5 5 -7 10 -4 6 3 10 8 10 11 0 2 -4 4 -10 4 -5 0 -10
-5 -10 -11z"/>
<path d="M4938 2383 c7 -3 16 -2 19 1 4 3 -2 6 -13 5 -11 0 -14 -3 -6 -6z"/>
<path d="M4265 2000 c3 -5 8 -10 11 -10 2 0 4 5 4 10 0 6 -5 10 -11 10 -5 0
-7 -4 -4 -10z"/>
<path d="M4305 1560 c-19 -8 -19 -9 3 -9 12 -1 22 4 22 9 0 6 -1 10 -2 9 -2 0
-12 -4 -23 -9z"/>
<path d="M4265 1551 c-3 -5 -1 -12 5 -16 5 -3 10 1 10 9 0 18 -6 21 -15 7z"/>
<path d="M4315 1410 c3 -5 8 -10 11 -10 2 0 4 5 4 10 0 6 -5 10 -11 10 -5 0
-7 -4 -4 -10z"/>
<path d="M4260 1366 c0 -24 17 -28 23 -6 3 13 0 20 -9 20 -8 0 -14 -6 -14 -14z"/>
<path d="M4338 1298 c2 -11 10 -17 18 -14 7 3 15 0 18 -7 2 -7 5 -2 5 9 1 15
-6 23 -23 26 -19 4 -22 1 -18 -14z"/>
<path d="M4406 1065 c4 -8 10 -12 15 -9 14 8 10 24 -6 24 -9 0 -12 -6 -9 -15z"/>
<path d="M4116 232 c2 -29 9 -62 14 -75 15 -39 11 42 -6 88 l-14 40 6 -53z"/>
</g>
</svg>
